<svg xmlns="http://www.w3.org/2000/svg" viewBox="0 0 48.98 48.98"><defs><style>.cls-1{fill:#f07f1d;}</style></defs><g id="Layer_2" data-name="Layer 2"><g id="Layer_1-2" data-name="Layer 1"><path class="cls-1" d="M8.49,8a4,4,0,1,1,4-4A4,4,0,0,1,8.49,8Zm0-7a3,3,0,1,0,3,3A3,3,0,0,0,8.49,1Z"/><path class="cls-1" d="M40.49,8a4,4,0,1,1,4-4A4,4,0,0,1,40.49,8Zm0-7a3,3,0,1,0,3,3A3,3,0,0,0,40.49,1Z"/><path class="cls-1" d="M8.49,37a4,4,0,1,1,4-4A4,4,0,0,1,8.49,37Zm0-7a3,3,0,1,0,3,3A3,3,0,0,0,8.49,30Z"/><path class="cls-1" d="M40.49,37a4,4,0,1,1,4-4A4,4,0,0,1,40.49,37Zm0-7a3,3,0,1,0,3,3A3,3,0,0,0,40.49,30Z"/><path class="cls-1" d="M46.72,40c-2.08-2-6.23-2-6.21-2s-4.17,0-6.25,2c-1.09,1-1.65,3.3-1.94,5.23l-5.9-9.95h0a3,3,0,0,0,0-4.58h0L32.79,20H49v-.49c0-.27-.21-6.56-2.25-8.49s-6.23-2-6.21-2-4.17,0-6.25,2c-1.88,1.78-2.2,7.27-2.24,8.31l-6.46,10.9h0a2.88,2.88,0,0,0-2.16,0h0L17,19.31c0-1-.35-6.53-2.24-8.31C12.64,9,8.5,9,8.51,9S4.34,9,2.26,11,0,19.22,0,19.49V20H16.19l6.37,10.74h0a3,3,0,0,0,0,4.58h0l-5.9,9.95c-.29-1.93-.85-4.2-1.94-5.23-2.08-2-6.22-2-6.21-2s-4.17,0-6.25,2S0,48.22,0,48.49V49H17v-.49c0-.09,0-.8-.12-1.78l.07,0,6.5-11h0a2.88,2.88,0,0,0,2.16,0h0l6.5,11,.08,0c-.1,1-.12,1.69-.13,1.78V49H49v-.49C49,48.22,48.76,41.93,46.72,40ZM34.92,11.69c1.61-1.52,5-1.73,5.59-1.71s3.94.19,5.55,1.71C47.4,13,47.88,17,48,19H33C33.1,17,33.58,13,34.92,11.69ZM1,19c.11-2,.59-6.06,1.93-7.33C4.53,10.17,7.88,10,8.51,10s3.94.19,5.55,1.71C15.4,13,15.88,17,16,19ZM1,48c.11-2,.59-6.06,1.93-7.33C4.53,39.17,7.88,39,8.51,39s3.94.19,5.55,1.71C15.4,42,15.88,46,16,48ZM26,30.44l-.06,0Zm-3,0-.06,0ZM23,35.56l.06,0ZM22.49,33a2,2,0,1,1,2,2A2,2,0,0,1,22.49,33ZM26,35.56l-.06,0ZM33,48c.11-2,.59-6.06,1.93-7.33,1.61-1.52,5-1.73,5.59-1.71s3.94.19,5.55,1.71C47.4,42,47.88,46,48,48Z"/></g></g></svg>