<svg xmlns="http://www.w3.org/2000/svg" viewBox="0 0 2284.87 416.28"><defs><style>.cls-1{isolation:isolate;}.cls-2{fill:#4ba07d;}.cls-3,.cls-7{fill:#677070;}.cls-3{fill-opacity:0.3;}.cls-3,.cls-6,.cls-7{mix-blend-mode:multiply;}.cls-4{fill:#f07f1d;}.cls-5{fill:#a3a2a2;}.cls-6{fill:#4e5454;opacity:0.4;}.cls-7{fill-opacity:0.15;}.cls-8{fill:#b5b5b5;}</style></defs><g class="cls-1"><g id="Layer_2" data-name="Layer 2"><g id="Layer_1-2" data-name="Layer 1"><circle class="cls-2" cx="455.71" cy="38.04" r="38.04"/><path class="cls-3" d="M423.66,57.8a38.05,38.05,0,1,0,63-42.51Z"/><circle class="cls-2" cx="38.04" cy="314.05" r="38.04"/><circle class="cls-4" cx="246.88" cy="177.12" r="65.22"/><path class="cls-5" d="M400.53,384.41l-42.74-70.08a176.5,176.5,0,0,0,65.87-137.55C423.66,79.3,344.36,0,246.88,0S70.1,79.3,70.1,176.78s79.31,176.78,176.78,176.78a175.75,175.75,0,0,0,76.66-17.5L364,402.45a20.38,20.38,0,1,0,36.47-18ZM108.45,176.78c0-76.33,62.1-138.43,138.43-138.43s138.44,62.1,138.44,138.43-62.1,138.43-138.44,138.43S108.45,253.11,108.45,176.78Z"/><path class="cls-3" d="M5.52,333.81a38.05,38.05,0,1,0,63-42.51Z"/><path class="cls-6" d="M423.66,176.78v-.44a176.78,176.78,0,0,1-353.55,0c0,.15,0,.29,0,.44,0,97.48,79.31,176.78,176.78,176.78a175.75,175.75,0,0,0,76.66-17.5L364,402.45a20.38,20.38,0,1,0,36.47-18h0l-42.74-70.08A176.5,176.5,0,0,0,423.66,176.78Z"/><path class="cls-7" d="M98.23,272.19A176.79,176.79,0,1,0,391.29,74.51Z"/><path class="cls-8" d="M701.25,52.52l51.64,256.74h10.33l53.8-255h47.33l54.22,255H928.9L979.68,52.52h43.47L958.6,352H889.31L840.25,115.09,792.92,352H723.2L657.79,52.52Z"/><path class="cls-8" d="M1228.84,315.3l.86,32.37s-49.06,9.06-85.64,9.06c-64.55-.44-87.79-36.25-87.79-110.9,0-80.26,34.43-113.92,91.66-113.92,59.39,0,89.09,30.64,89.09,99.68l-2.59,29.78H1097.59c0,38.83,13.77,57.82,52.07,57.82C1182.79,319.19,1228.84,315.3,1228.84,315.3Zm-32.28-85.86c0-44.88-14.2-61.27-48.63-61.27-33.56,0-50.34,17.68-50.77,61.27Z"/><path class="cls-8" d="M1290.8,352V52.52h103.28c91.67,0,114.9,55.23,114.9,144.55,0,91.05-21.51,154.91-114.9,154.91ZM1394.08,92.22h-62V312.28h62c60.68,0,71.87-52.64,71.87-115.21C1466,134.94,1454.76,92.22,1394.08,92.22Z"/><path class="cls-8" d="M1737.06,242.38c0,72.49-20.66,114.35-93.81,114.35-73.59,0-94.68-40.13-94.68-114.35,0-72.06,24.1-110.47,94.68-110.47C1711.24,131.91,1737.06,171.18,1737.06,242.38Zm-41.31,0c0-51.35-14.21-73.79-52.5-73.79-41.32,0-53.37,20.71-53.37,73.79,0,53.51,9,77.24,53.37,77.24S1695.75,293.73,1695.75,242.38Z"/><path class="cls-2" d="M1926.41,353.71a159.76,159.76,0,0,1-30.56,3c-92.09,0-118.77-52.64-118.77-152.75,0-99.25,26.68-156.21,118.77-156.21S2015.06,104.3,2015.06,204c0,68.17-12,113-47.34,135.49l35.72,58.68-38.73,18.13ZM1971.59,204c0-74.22-14.2-115.64-75.74-115.64s-75.74,41-75.74,115.64c0,75.08,13.77,112.19,75.74,112.19C1958.25,316.17,1971.59,280.78,1971.59,204Z"/><path class="cls-2" d="M2123.49,52.52h85.64l75.74,299H2242.7l-19.37-66.88H2107.14L2088.63,352h-41.74Zm-7.31,192h98.55L2176.42,91.36h-21.08Z"/></g></g></g></svg>