<svg xmlns="http://www.w3.org/2000/svg" xmlns:xlink="http://www.w3.org/1999/xlink" viewBox="0 0 39.2 48.91"><defs><style>.cls-1{fill:url(#linear-gradient);}.cls-2{fill:url(#linear-gradient-2);}.cls-3{fill:url(#linear-gradient-3);}</style><linearGradient id="linear-gradient" x1="12.82" y1="-4.64" x2="35.61" y2="23.96" gradientTransform="translate(2.42 2.34) rotate(-6.12)" gradientUnits="userSpaceOnUse"><stop offset="0" stop-color="#f08020"/><stop offset="1" stop-color="#4ca07d"/></linearGradient><linearGradient id="linear-gradient-2" x1="-14.05" y1="19.66" x2="8.73" y2="48.26" gradientTransform="translate(0.49 0.77) rotate(-2.23)" xlink:href="#linear-gradient"/><linearGradient id="linear-gradient-3" x1="7.17" y1="2.76" x2="29.95" y2="31.36" gradientTransform="translate(0.49 0.77) rotate(-2.23)" xlink:href="#linear-gradient"/></defs><g id="Layer_2" data-name="Layer 2"><g id="Layer_1-2" data-name="Layer 1"><path class="cls-1" d="M19.73,4.38h-.1a.57.57,0,0,0-.5.62.56.56,0,0,0,.62.49h0A12.57,12.57,0,0,1,33.57,16.64h0a.56.56,0,0,0,.61.49.55.55,0,0,0,.49-.6h0A13.69,13.69,0,0,0,19.73,4.38Z"/><path class="cls-2" d="M8,34.92.49,45.45a2.11,2.11,0,0,0,2.58,3.23,2,2,0,0,0,.8-.72h0l7.61-10.65Z"/><path class="cls-3" d="M20.51,0A18,18,0,0,0,10.08,32.1L10,32l-.85,1.22,3.44,2.38,1-1.38A18,18,0,1,0,20.51,0Zm1.32,33.72A15.76,15.76,0,1,1,37,17.37,15.78,15.78,0,0,1,21.83,33.73Z"/></g></g></svg>