<svg xmlns="http://www.w3.org/2000/svg" xmlns:xlink="http://www.w3.org/1999/xlink" viewBox="0 0 48 48.73"><defs><style>.cls-1{fill:none;}.cls-2{clip-path:url(#clip-path);}.cls-3{fill:#ce8631;}.cls-4{fill:#cd8631;}.cls-5{fill:#cc8632;}.cls-6{fill:#cb8633;}.cls-7{fill:#ca8733;}.cls-8{fill:#c98734;}.cls-9{fill:#c88734;}.cls-10{fill:#c78735;}.cls-11{fill:#c68736;}.cls-12{fill:#c58836;}.cls-13{fill:#c48837;}.cls-14{fill:#c38837;}.cls-15{fill:#c28838;}.cls-16{fill:#c18839;}.cls-17{fill:#c08939;}.cls-18{fill:#bf893a;}.cls-19{fill:#be893a;}.cls-20{fill:#bd893b;}.cls-21{fill:#bc893b;}.cls-22{fill:#bb8a3c;}.cls-23{fill:#ba8a3d;}.cls-24{fill:#b98a3d;}.cls-25{fill:#b88a3e;}.cls-26{fill:#b78a3e;}.cls-27{fill:#b68b3f;}.cls-28{fill:#b58b40;}.cls-29{fill:#b48b40;}.cls-30{fill:#b38b41;}.cls-31{fill:#b28b41;}.cls-32{fill:#b18c42;}.cls-33{fill:#b08c42;}.cls-34{fill:#af8c43;}.cls-35{fill:#ae8c44;}.cls-36{fill:#ad8c44;}.cls-37{fill:#ac8d45;}.cls-38{fill:#ab8d45;}.cls-39{fill:#aa8d46;}.cls-40{fill:#a98d47;}.cls-41{fill:#a88d47;}.cls-42{fill:#a78e48;}.cls-43{fill:#a68e48;}.cls-44{fill:#a58e49;}.cls-45{fill:#a48e49;}.cls-46{fill:#a38e4a;}.cls-47{fill:#a28f4b;}.cls-48{fill:#a18f4b;}.cls-49{fill:#a08f4c;}.cls-50{fill:#9f8f4c;}.cls-51{fill:#9e904d;}.cls-52{fill:#9c904e;}.cls-53{fill:#9b904e;}.cls-54{fill:#9a904f;}.cls-55{fill:#99904f;}.cls-56{fill:#989150;}.cls-57{fill:#979151;}.cls-58{fill:#969151;}.cls-59{fill:#959152;}.cls-60{fill:#949152;}.cls-61{fill:#939253;}.cls-62{fill:#929253;}.cls-63{fill:#919254;}.cls-64{fill:#909255;}.cls-65{fill:#8f9255;}.cls-66{fill:#8e9356;}.cls-67{fill:#8d9356;}.cls-68{fill:#8c9357;}.cls-69{fill:#8b9358;}.cls-70{fill:#8a9358;}.cls-71{fill:#899459;}.cls-72{fill:#889459;}.cls-73{fill:#87945a;}.cls-74{fill:#86945a;}.cls-75{fill:#85945b;}.cls-76{fill:#84955c;}.cls-77{fill:#83955c;}.cls-78{fill:#82955d;}.cls-79{fill:#81955d;}.cls-80{fill:#80955e;}.cls-81{fill:#7f965f;}.cls-82{fill:#7e965f;}.cls-83{fill:#7d9660;}.cls-84{fill:#7c9660;}.cls-85{fill:#7b9661;}.cls-86{fill:#7a9761;}.cls-87{fill:#799762;}.cls-88{fill:#789763;}.cls-89{fill:#779763;}.cls-90{fill:#769764;}.cls-91{fill:#759864;}.cls-92{fill:#749865;}.cls-93{fill:#739866;}.cls-94{fill:#729866;}.cls-95{fill:#719867;}.cls-96{fill:#709967;}.cls-97{fill:#6f9968;}.cls-98{fill:#6e9969;}.cls-99{fill:#6d9969;}.cls-100{fill:#6c996a;}.cls-101{fill:#6b9a6a;}.cls-102{fill:#6a9a6b;}.cls-103{fill:#699a6b;}.cls-104{fill:#689a6c;}.cls-105{fill:#679a6d;}.cls-106{fill:#669b6d;}.cls-107{fill:#659b6e;}.cls-108{fill:#649b6e;}.cls-109{fill:#639b6f;}.cls-110{fill:#629b70;}.cls-111{fill:#619c70;}.cls-112{fill:#609c71;}.cls-113{fill:#5f9c71;}.cls-114{fill:#5e9c72;}.cls-115{fill:#5d9c72;}.cls-116{fill:#5c9d73;}.cls-117{fill:#5b9d74;}.cls-118{fill:#5a9d74;}.cls-119{fill:#599d75;}.cls-120{fill:#589d75;}.cls-121{clip-path:url(#clip-path-2);}.cls-122{fill:#579e76;}.cls-123{fill:#569e77;}.cls-124{fill:#559e77;}.cls-125{fill:#549e78;}.cls-126{fill:#539e78;}.cls-127{fill:#529f79;}.cls-128{fill:#519f79;}.cls-129{fill:#509f7a;}.cls-130{fill:#4f9f7b;}.cls-131{fill:#4e9f7b;}.cls-132{fill:#4da07c;}.cls-133{fill:#4ca07c;}.cls-134{fill:#4ba07d;}.cls-135{clip-path:url(#clip-path-3);}.cls-136{clip-path:url(#clip-path-4);}.cls-137{fill:#f07f1d;}.cls-138{fill:#ef7f1e;}.cls-139{fill:#ee7f1e;}.cls-140{fill:#ed801f;}.cls-141{fill:#ec801f;}.cls-142{fill:#eb8020;}.cls-143{fill:#ea8021;}.cls-144{fill:#e98021;}.cls-145{fill:#e88122;}.cls-146{fill:#e78122;}.cls-147{fill:#e68123;}.cls-148{fill:#e58123;}.cls-149{fill:#e48124;}.cls-150{fill:#e38225;}.cls-151{fill:#e28225;}.cls-152{fill:#e18226;}.cls-153{fill:#e08226;}.cls-154{fill:#df8227;}.cls-155{fill:#de8328;}.cls-156{fill:#dd8328;}.cls-157{fill:#dc8329;}.cls-158{fill:#db8329;}.cls-159{fill:#da832a;}.cls-160{fill:#d9842a;}.cls-161{fill:#d8842b;}.cls-162{fill:#d7842c;}.cls-163{fill:#d6842c;}.cls-164{fill:#d5842d;}.cls-165{fill:#d4852d;}.cls-166{fill:#d3852e;}.cls-167{fill:#d2852f;}.cls-168{fill:#d1852f;}.cls-169{fill:#d08530;}.cls-170{fill:#cf8630;}.cls-171{clip-path:url(#clip-path-5);}</style><clipPath id="clip-path" transform="translate(0)"><path class="cls-1" d="M1.9,25.66H10.1a1.9,1.9,0,0,1,1.9,1.9v21.1a0,0,0,0,1,0,0H0a0,0,0,0,1,0,0V27.56A1.9,1.9,0,0,1,1.9,25.66Z"/></clipPath><clipPath id="clip-path-2" transform="translate(0)"><path class="cls-1" d="M19.89,19.65h8.22A1.89,1.89,0,0,1,30,21.54V48.65a0,0,0,0,1,0,0H18a0,0,0,0,1,0,0V21.54A1.89,1.89,0,0,1,19.89,19.65Z"/></clipPath><clipPath id="clip-path-3" transform="translate(0)"><path class="cls-1" d="M37.88,14.73h8.23A1.88,1.88,0,0,1,48,16.61V48.73a0,0,0,0,1,0,0H36a0,0,0,0,1,0,0V16.61A1.88,1.88,0,0,1,37.88,14.73Z"/></clipPath><clipPath id="clip-path-4" transform="translate(0)"><polygon class="cls-1" points="2.85 19.39 1.63 18.02 18.51 3.05 29.36 12.23 41.49 2.68 42.63 4.12 29.32 14.61 18.54 5.49 2.85 19.39"/></clipPath><clipPath id="clip-path-5" transform="translate(0)"><polygon class="cls-1" points="42.14 7.68 41.16 4.1 37.92 2.32 46.37 0 42.14 7.68"/></clipPath></defs><g id="Layer_2" data-name="Layer 2"><g id="Layer_1-2" data-name="Layer 1"><g class="cls-2"><polygon class="cls-3" points="0.11 25.66 0 25.75 0 25.66 0.11 25.66"/><polygon class="cls-4" points="0.47 25.66 0 26.02 0 25.75 0.11 25.66 0.47 25.66"/><polygon class="cls-5" points="0.84 25.66 0 26.3 0 26.02 0.47 25.66 0.84 25.66"/><polygon class="cls-6" points="1.2 25.66 0 26.57 0 26.3 0.84 25.66 1.2 25.66"/><polygon class="cls-7" points="1.56 25.66 0 26.84 0 26.57 1.2 25.66 1.56 25.66"/><polygon class="cls-8" points="1.92 25.66 0 27.12 0 26.84 1.56 25.66 1.92 25.66"/><polygon class="cls-9" points="2.28 25.66 0 27.39 0 27.12 1.92 25.66 2.28 25.66"/><polygon class="cls-10" points="2.64 25.66 0 27.66 0 27.39 2.28 25.66 2.64 25.66"/><polygon class="cls-11" points="3.01 25.66 0 27.94 0 27.66 2.64 25.66 3.01 25.66"/><polygon class="cls-12" points="3.37 25.66 0 28.21 0 27.94 3.01 25.66 3.37 25.66"/><polygon class="cls-13" points="3.73 25.66 0 28.49 0 28.21 3.37 25.66 3.73 25.66"/><polygon class="cls-14" points="4.09 25.66 0 28.76 0 28.49 3.73 25.66 4.09 25.66"/><polygon class="cls-15" points="4.45 25.66 0 29.04 0 28.76 4.09 25.66 4.45 25.66"/><polygon class="cls-16" points="4.81 25.66 0 29.31 0 29.04 4.45 25.66 4.81 25.66"/><polygon class="cls-17" points="5.17 25.66 0 29.58 0 29.31 4.81 25.66 5.17 25.66"/><polygon class="cls-18" points="5.54 25.66 0 29.86 0 29.58 5.17 25.66 5.54 25.66"/><polygon class="cls-19" points="5.9 25.66 0 30.13 0 29.86 5.54 25.66 5.9 25.66"/><polygon class="cls-20" points="6.26 25.66 0 30.41 0 30.13 5.9 25.66 6.26 25.66"/><polygon class="cls-21" points="6.62 25.66 0 30.68 0 30.41 6.26 25.66 6.62 25.66"/><polygon class="cls-22" points="6.98 25.66 0 30.95 0 30.68 6.62 25.66 6.98 25.66"/><polygon class="cls-23" points="7.34 25.66 0 31.23 0 30.95 6.98 25.66 7.34 25.66"/><polygon class="cls-24" points="7.71 25.66 0 31.5 0 31.23 7.34 25.66 7.71 25.66"/><polygon class="cls-25" points="8.07 25.66 0 31.78 0 31.5 7.71 25.66 8.07 25.66"/><polygon class="cls-26" points="8.43 25.66 0 32.05 0 31.78 8.07 25.66 8.43 25.66"/><polygon class="cls-27" points="8.79 25.66 0 32.32 0 32.05 8.43 25.66 8.79 25.66"/><polygon class="cls-28" points="9.15 25.66 0 32.6 0 32.32 8.79 25.66 9.15 25.66"/><polygon class="cls-29" points="9.51 25.66 0 32.87 0 32.6 9.15 25.66 9.51 25.66"/><polygon class="cls-30" points="9.88 25.66 0 33.15 0 32.87 9.51 25.66 9.88 25.66"/><polygon class="cls-31" points="10.24 25.66 0 33.42 0 33.15 9.88 25.66 10.24 25.66"/><polygon class="cls-32" points="10.6 25.66 0 33.7 0 33.42 10.24 25.66 10.6 25.66"/><polygon class="cls-33" points="10.96 25.66 0 33.97 0 33.7 10.6 25.66 10.96 25.66"/><polygon class="cls-34" points="11.32 25.66 0 34.24 0 33.97 10.96 25.66 11.32 25.66"/><polygon class="cls-35" points="11.68 25.66 0 34.52 0 34.24 11.32 25.66 11.68 25.66"/><polygon class="cls-36" points="12 25.69 0 34.79 0 34.52 11.68 25.66 12 25.66 12 25.69"/><polygon class="cls-37" points="12 25.97 0 35.06 0 34.79 12 25.69 12 25.97"/><polygon class="cls-38" points="12 26.24 0 35.34 0 35.06 12 25.97 12 26.24"/><polygon class="cls-39" points="12 26.52 0 35.61 0 35.34 12 26.24 12 26.52"/><polygon class="cls-40" points="12 26.79 0 35.89 0 35.61 12 26.52 12 26.79"/><polygon class="cls-41" points="12 27.06 0 36.16 0 35.89 12 26.79 12 27.06"/><polygon class="cls-42" points="12 27.34 0 36.44 0 36.16 12 27.06 12 27.34"/><polygon class="cls-43" points="12 27.61 0 36.71 0 36.44 12 27.34 12 27.61"/><polygon class="cls-44" points="12 27.89 0 36.98 0 36.71 12 27.61 12 27.89"/><polygon class="cls-45" points="12 28.16 0 37.26 0 36.98 12 27.89 12 28.16"/><polygon class="cls-46" points="12 28.43 0 37.53 0 37.26 12 28.16 12 28.43"/><polygon class="cls-47" points="12 28.71 0 37.81 0 37.53 12 28.43 12 28.71"/><polygon class="cls-48" points="12 28.98 0 38.08 0 37.81 12 28.71 12 28.98"/><polygon class="cls-49" points="12 29.26 0 38.35 0 38.08 12 28.98 12 29.26"/><polygon class="cls-50" points="12 29.53 0 38.63 0 38.35 12 29.26 12 29.53"/><polygon class="cls-51" points="12 29.8 0 38.9 0 38.63 12 29.53 12 29.8"/><polygon class="cls-52" points="12 30.08 0 39.18 0 38.9 12 29.8 12 30.08"/><polygon class="cls-53" points="12 30.35 0 39.45 0 39.18 12 30.08 12 30.35"/><polygon class="cls-54" points="12 30.63 0 39.72 0 39.45 12 30.35 12 30.63"/><polygon class="cls-55" points="12 30.9 0 40 0 39.72 12 30.63 12 30.9"/><polygon class="cls-56" points="12 31.18 0 40.27 0 40 12 30.9 12 31.18"/><polygon class="cls-57" points="12 31.45 0 40.55 0 40.27 12 31.18 12 31.45"/><polygon class="cls-58" points="12 31.72 0 40.82 0 40.55 12 31.45 12 31.72"/><polygon class="cls-59" points="12 32 0 41.09 0 40.82 12 31.72 12 32"/><polygon class="cls-60" points="12 32.27 0 41.37 0 41.09 12 32 12 32.27"/><polygon class="cls-61" points="12 32.55 0 41.64 0 41.37 12 32.27 12 32.55"/><polygon class="cls-62" points="12 32.82 0 41.92 0 41.64 12 32.55 12 32.82"/><polygon class="cls-63" points="12 33.09 0 42.19 0 41.92 12 32.82 12 33.09"/><polygon class="cls-64" points="12 33.37 0 42.47 0 42.19 12 33.09 12 33.37"/><polygon class="cls-65" points="12 33.64 0 42.74 0 42.47 12 33.37 12 33.64"/><polygon class="cls-66" points="12 33.92 0 43.01 0 42.74 12 33.64 12 33.92"/><polygon class="cls-67" points="12 34.19 0 43.29 0 43.01 12 33.92 12 34.19"/><polygon class="cls-68" points="12 34.46 0 43.56 0 43.29 12 34.19 12 34.46"/><polygon class="cls-69" points="12 34.74 0 43.84 0 43.56 12 34.46 12 34.74"/><polygon class="cls-70" points="12 35.01 0 44.11 0 43.84 12 34.74 12 35.01"/><polygon class="cls-71" points="12 35.29 0 44.38 0 44.11 12 35.01 12 35.29"/><polygon class="cls-72" points="12 35.56 0 44.66 0 44.38 12 35.29 12 35.56"/><polygon class="cls-73" points="12 35.83 0 44.93 0 44.66 12 35.56 12 35.83"/><polygon class="cls-74" points="12 36.11 0 45.21 0 44.93 12 35.83 12 36.11"/><polygon class="cls-75" points="12 36.38 0 45.48 0 45.21 12 36.11 12 36.38"/><polygon class="cls-76" points="12 36.66 0 45.75 0 45.48 12 36.38 12 36.66"/><polygon class="cls-77" points="12 36.93 0 46.03 0 45.75 12 36.66 12 36.93"/><polygon class="cls-78" points="12 37.2 0 46.3 0 46.03 12 36.93 12 37.2"/><polygon class="cls-79" points="12 37.48 0 46.58 0 46.3 12 37.2 12 37.48"/><polygon class="cls-80" points="12 37.75 0 46.85 0 46.58 12 37.48 12 37.75"/><polygon class="cls-81" points="12 38.03 0 47.13 0 46.85 12 37.75 12 38.03"/><polygon class="cls-82" points="12 38.3 0 47.4 0 47.13 12 38.03 12 38.3"/><polygon class="cls-83" points="12 38.58 0 47.67 0 47.4 12 38.3 12 38.58"/><polygon class="cls-84" points="12 38.85 0 47.95 0 47.67 12 38.58 12 38.85"/><polygon class="cls-85" points="12 39.12 0 48.22 0 47.95 12 38.85 12 39.12"/><polygon class="cls-86" points="12 39.4 0 48.49 0 48.22 12 39.12 12 39.4"/><polygon class="cls-87" points="12 39.67 0.14 48.66 0 48.66 0 48.49 12 39.4 12 39.67"/><polygon class="cls-88" points="12 39.95 0.51 48.66 0.14 48.66 12 39.67 12 39.95"/><polygon class="cls-89" points="12 40.22 0.87 48.66 0.51 48.66 12 39.95 12 40.22"/><polygon class="cls-90" points="12 40.49 1.23 48.66 0.87 48.66 12 40.22 12 40.49"/><polygon class="cls-91" points="12 40.77 1.59 48.66 1.23 48.66 12 40.49 12 40.77"/><polygon class="cls-92" points="12 41.04 1.95 48.66 1.59 48.66 12 40.77 12 41.04"/><polygon class="cls-93" points="12 41.32 2.31 48.66 1.95 48.66 12 41.04 12 41.32"/><polygon class="cls-94" points="12 41.59 2.67 48.66 2.31 48.66 12 41.32 12 41.59"/><polygon class="cls-95" points="12 41.86 3.04 48.66 2.67 48.66 12 41.59 12 41.86"/><polygon class="cls-96" points="12 42.14 3.4 48.66 3.04 48.66 12 41.86 12 42.14"/><polygon class="cls-97" points="12 42.41 3.76 48.66 3.4 48.66 12 42.14 12 42.41"/><polygon class="cls-98" points="12 42.69 4.12 48.66 3.76 48.66 12 42.41 12 42.69"/><polygon class="cls-99" points="12 42.96 4.48 48.66 4.12 48.66 12 42.69 12 42.96"/><polygon class="cls-100" points="12 43.23 4.84 48.66 4.48 48.66 12 42.96 12 43.23"/><polygon class="cls-101" points="12 43.51 5.21 48.66 4.84 48.66 12 43.23 12 43.51"/><polygon class="cls-102" points="12 43.78 5.57 48.66 5.21 48.66 12 43.51 12 43.78"/><polygon class="cls-103" points="12 44.06 5.93 48.66 5.57 48.66 12 43.78 12 44.06"/><polygon class="cls-104" points="12 44.33 6.29 48.66 5.93 48.66 12 44.06 12 44.33"/><polygon class="cls-105" points="12 44.6 6.65 48.66 6.29 48.66 12 44.33 12 44.6"/><polygon class="cls-106" points="12 44.88 7.01 48.66 6.65 48.66 12 44.6 12 44.88"/><polygon class="cls-107" points="12 45.15 7.37 48.66 7.01 48.66 12 44.88 12 45.15"/><polygon class="cls-108" points="12 45.43 7.74 48.66 7.37 48.66 12 45.15 12 45.43"/><polygon class="cls-109" points="12 45.7 8.1 48.66 7.74 48.66 12 45.43 12 45.7"/><polygon class="cls-110" points="12 45.98 8.46 48.66 8.1 48.66 12 45.7 12 45.98"/><polygon class="cls-111" points="12 46.25 8.82 48.66 8.46 48.66 12 45.98 12 46.25"/><polygon class="cls-112" points="12 46.52 9.18 48.66 8.82 48.66 12 46.25 12 46.52"/><polygon class="cls-113" points="12 46.8 9.54 48.66 9.18 48.66 12 46.52 12 46.8"/><polygon class="cls-114" points="12 47.07 9.9 48.66 9.54 48.66 12 46.8 12 47.07"/><polygon class="cls-115" points="12 47.35 10.27 48.66 9.9 48.66 12 47.07 12 47.35"/><polygon class="cls-116" points="12 47.62 10.63 48.66 10.27 48.66 12 47.35 12 47.62"/><polygon class="cls-117" points="12 47.89 10.99 48.66 10.63 48.66 12 47.62 12 47.89"/><polygon class="cls-118" points="12 48.17 11.35 48.66 10.99 48.66 12 47.89 12 48.17"/><polygon class="cls-119" points="12 48.44 11.71 48.66 11.35 48.66 12 48.17 12 48.44"/><polygon class="cls-120" points="11.71 48.66 12 48.44 12 48.66 11.71 48.66"/></g><g class="cls-121"><polygon class="cls-25" points="18.16 19.65 18 19.77 18 19.65 18.16 19.65"/><polygon class="cls-26" points="18.53 19.65 18 20.05 18 19.77 18.16 19.65 18.53 19.65"/><polygon class="cls-27" points="18.89 19.65 18 20.32 18 20.05 18.53 19.65 18.89 19.65"/><polygon class="cls-28" points="19.25 19.65 18 20.59 18 20.32 18.89 19.65 19.25 19.65"/><polygon class="cls-29" points="19.61 19.65 18 20.86 18 20.59 19.25 19.65 19.61 19.65"/><polygon class="cls-30" points="19.97 19.65 18 21.14 18 20.86 19.61 19.65 19.97 19.65"/><polygon class="cls-31" points="20.33 19.65 18 21.41 18 21.14 19.97 19.65 20.33 19.65"/><polygon class="cls-32" points="20.7 19.65 18 21.68 18 21.41 20.33 19.65 20.7 19.65"/><polygon class="cls-33" points="21.06 19.65 18 21.95 18 21.68 20.7 19.65 21.06 19.65"/><polygon class="cls-34" points="21.42 19.65 18 22.23 18 21.95 21.06 19.65 21.42 19.65"/><polygon class="cls-35" points="21.78 19.65 18 22.5 18 22.23 21.42 19.65 21.78 19.65"/><polygon class="cls-36" points="22.14 19.65 18 22.77 18 22.5 21.78 19.65 22.14 19.65"/><polygon class="cls-37" points="22.5 19.65 18 23.05 18 22.77 22.14 19.65 22.5 19.65"/><polygon class="cls-38" points="22.86 19.65 18 23.32 18 23.05 22.5 19.65 22.86 19.65"/><polygon class="cls-39" points="23.22 19.65 18 23.59 18 23.32 22.86 19.65 23.22 19.65"/><polygon class="cls-40" points="23.59 19.65 18 23.86 18 23.59 23.22 19.65 23.59 19.65"/><polygon class="cls-41" points="23.95 19.65 18 24.14 18 23.86 23.59 19.65 23.95 19.65"/><polygon class="cls-42" points="24.31 19.65 18 24.41 18 24.14 23.95 19.65 24.31 19.65"/><polygon class="cls-43" points="24.67 19.65 18 24.68 18 24.41 24.31 19.65 24.67 19.65"/><polygon class="cls-44" points="25.03 19.65 18 24.95 18 24.68 24.67 19.65 25.03 19.65"/><polygon class="cls-45" points="25.39 19.65 18 25.23 18 24.95 25.03 19.65 25.39 19.65"/><polygon class="cls-46" points="25.75 19.65 18 25.5 18 25.23 25.39 19.65 25.75 19.65"/><polygon class="cls-47" points="26.12 19.65 18 25.77 18 25.5 25.75 19.65 26.12 19.65"/><polygon class="cls-48" points="26.48 19.65 18 26.04 18 25.77 26.12 19.65 26.48 19.65"/><polygon class="cls-49" points="26.84 19.65 18 26.31 18 26.04 26.48 19.65 26.84 19.65"/><polygon class="cls-50" points="27.2 19.65 18 26.59 18 26.31 26.84 19.65 27.2 19.65"/><polygon class="cls-51" points="27.56 19.65 18 26.86 18 26.59 27.2 19.65 27.56 19.65"/><polygon class="cls-52" points="27.92 19.65 18 27.13 18 26.86 27.56 19.65 27.92 19.65"/><polygon class="cls-53" points="28.28 19.65 18 27.4 18 27.13 27.92 19.65 28.28 19.65"/><polygon class="cls-54" points="28.65 19.65 18 27.68 18 27.4 28.28 19.65 28.65 19.65"/><polygon class="cls-55" points="29.01 19.65 18 27.95 18 27.68 28.65 19.65 29.01 19.65"/><polygon class="cls-56" points="29.37 19.65 18 28.22 18 27.95 29.01 19.65 29.37 19.65"/><polygon class="cls-57" points="29.73 19.65 18 28.49 18 28.22 29.37 19.65 29.73 19.65"/><polygon class="cls-58" points="30 19.72 18 28.77 18 28.49 29.73 19.65 30 19.65 30 19.72"/><polygon class="cls-59" points="30 19.99 18 29.04 18 28.77 30 19.72 30 19.99"/><polygon class="cls-60" points="30 20.27 18 29.31 18 29.04 30 19.99 30 20.27"/><polygon class="cls-61" points="30 20.54 18 29.58 18 29.31 30 20.27 30 20.54"/><polygon class="cls-62" points="30 20.81 18 29.86 18 29.58 30 20.54 30 20.81"/><polygon class="cls-63" points="30 21.08 18 30.13 18 29.86 30 20.81 30 21.08"/><polygon class="cls-64" points="30 21.35 18 30.4 18 30.13 30 21.08 30 21.35"/><polygon class="cls-65" points="30 21.63 18 30.67 18 30.4 30 21.35 30 21.63"/><polygon class="cls-66" points="30 21.9 18 30.95 18 30.67 30 21.63 30 21.9"/><polygon class="cls-67" points="30 22.17 18 31.22 18 30.95 30 21.9 30 22.17"/><polygon class="cls-68" points="30 22.44 18 31.49 18 31.22 30 22.17 30 22.44"/><polygon class="cls-69" points="30 22.72 18 31.76 18 31.49 30 22.44 30 22.72"/><polygon class="cls-70" points="30 22.99 18 32.04 18 31.76 30 22.72 30 22.99"/><polygon class="cls-71" points="30 23.26 18 32.31 18 32.04 30 22.99 30 23.26"/><polygon class="cls-72" points="30 23.53 18 32.58 18 32.31 30 23.26 30 23.53"/><polygon class="cls-73" points="30 23.81 18 32.85 18 32.58 30 23.53 30 23.81"/><polygon class="cls-74" points="30 24.08 18 33.13 18 32.85 30 23.81 30 24.08"/><polygon class="cls-75" points="30 24.35 18 33.4 18 33.13 30 24.08 30 24.35"/><polygon class="cls-76" points="30 24.62 18 33.67 18 33.4 30 24.35 30 24.62"/><polygon class="cls-77" points="30 24.9 18 33.94 18 33.67 30 24.62 30 24.9"/><polygon class="cls-78" points="30 25.17 18 34.22 18 33.94 30 24.9 30 25.17"/><polygon class="cls-79" points="30 25.44 18 34.49 18 34.22 30 25.17 30 25.44"/><polygon class="cls-80" points="30 25.71 18 34.76 18 34.49 30 25.44 30 25.71"/><polygon class="cls-81" points="30 25.99 18 35.03 18 34.76 30 25.71 30 25.99"/><polygon class="cls-82" points="30 26.26 18 35.31 18 35.03 30 25.99 30 26.26"/><polygon class="cls-83" points="30 26.53 18 35.58 18 35.31 30 26.26 30 26.53"/><polygon class="cls-84" points="30 26.8 18 35.85 18 35.58 30 26.53 30 26.8"/><polygon class="cls-85" points="30 27.08 18 36.12 18 35.85 30 26.8 30 27.08"/><polygon class="cls-86" points="30 27.35 18 36.4 18 36.12 30 27.08 30 27.35"/><polygon class="cls-87" points="30 27.62 18 36.67 18 36.4 30 27.35 30 27.62"/><polygon class="cls-88" points="30 27.89 18 36.94 18 36.67 30 27.62 30 27.89"/><polygon class="cls-89" points="30 28.17 18 37.21 18 36.94 30 27.89 30 28.17"/><polygon class="cls-90" points="30 28.44 18 37.49 18 37.21 30 28.17 30 28.44"/><polygon class="cls-91" points="30 28.71 18 37.76 18 37.49 30 28.44 30 28.71"/><polygon class="cls-92" points="30 28.98 18 38.03 18 37.76 30 28.71 30 28.98"/><polygon class="cls-93" points="30 29.26 18 38.3 18 38.03 30 28.98 30 29.26"/><polygon class="cls-94" points="30 29.53 18 38.58 18 38.3 30 29.26 30 29.53"/><polygon class="cls-95" points="30 29.8 18 38.85 18 38.58 30 29.53 30 29.8"/><polygon class="cls-96" points="30 30.07 18 39.12 18 38.85 30 29.8 30 30.07"/><polygon class="cls-97" points="30 30.35 18 39.39 18 39.12 30 30.07 30 30.35"/><polygon class="cls-98" points="30 30.62 18 39.67 18 39.39 30 30.35 30 30.62"/><polygon class="cls-99" points="30 30.89 18 39.94 18 39.67 30 30.62 30 30.89"/><polygon class="cls-100" points="30 31.16 18 40.21 18 39.94 30 30.89 30 31.16"/><polygon class="cls-101" points="30 31.44 18 40.48 18 40.21 30 31.16 30 31.44"/><polygon class="cls-102" points="30 31.71 18 40.76 18 40.48 30 31.44 30 31.71"/><polygon class="cls-103" points="30 31.98 18 41.03 18 40.76 30 31.71 30 31.98"/><polygon class="cls-104" points="30 32.25 18 41.3 18 41.03 30 31.98 30 32.25"/><polygon class="cls-105" points="30 32.53 18 41.57 18 41.3 30 32.25 30 32.53"/><polygon class="cls-106" points="30 32.8 18 41.85 18 41.57 30 32.53 30 32.8"/><polygon class="cls-107" points="30 33.07 18 42.12 18 41.85 30 32.8 30 33.07"/><polygon class="cls-108" points="30 33.34 18 42.39 18 42.12 30 33.07 30 33.34"/><polygon class="cls-109" points="30 33.62 18 42.66 18 42.39 30 33.34 30 33.62"/><polygon class="cls-110" points="30 33.89 18 42.94 18 42.66 30 33.62 30 33.89"/><polygon class="cls-111" points="30 34.16 18 43.21 18 42.94 30 33.89 30 34.16"/><polygon class="cls-112" points="30 34.43 18 43.48 18 43.21 30 34.16 30 34.43"/><polygon class="cls-113" points="30 34.71 18 43.75 18 43.48 30 34.43 30 34.71"/><polygon class="cls-114" points="30 34.98 18 44.03 18 43.75 30 34.71 30 34.98"/><polygon class="cls-115" points="30 35.25 18 44.3 18 44.03 30 34.98 30 35.25"/><polygon class="cls-116" points="30 35.52 18 44.57 18 44.3 30 35.25 30 35.52"/><polygon class="cls-117" points="30 35.8 18 44.84 18 44.57 30 35.52 30 35.8"/><polygon class="cls-118" points="30 36.07 18 45.12 18 44.84 30 35.8 30 36.07"/><polygon class="cls-119" points="30 36.34 18 45.39 18 45.12 30 36.07 30 36.34"/><polygon class="cls-120" points="30 36.61 18 45.66 18 45.39 30 36.34 30 36.61"/><polygon class="cls-122" points="30 36.89 18 45.93 18 45.66 30 36.61 30 36.89"/><polygon class="cls-123" points="30 37.16 18 46.2 18 45.93 30 36.89 30 37.16"/><polygon class="cls-124" points="30 37.43 18 46.48 18 46.2 30 37.16 30 37.43"/><polygon class="cls-125" points="30 37.7 18 46.75 18 46.48 30 37.43 30 37.7"/><polygon class="cls-126" points="30 37.98 18 47.02 18 46.75 30 37.7 30 37.98"/><polygon class="cls-127" points="30 38.25 18 47.3 18 47.02 30 37.98 30 38.25"/><polygon class="cls-128" points="30 38.52 18 47.57 18 47.3 30 38.25 30 38.52"/><polygon class="cls-129" points="30 38.79 18 47.84 18 47.57 30 38.52 30 38.79"/><polygon class="cls-130" points="30 39.07 18 48.11 18 47.84 30 38.79 30 39.07"/><polygon class="cls-131" points="30 39.34 18 48.38 18 48.11 30 39.07 30 39.34"/><polygon class="cls-132" points="30 39.61 18.01 48.65 18 48.65 18 48.38 30 39.34 30 39.61"/><polygon class="cls-133" points="30 39.88 18.37 48.65 18.01 48.65 30 39.61 30 39.88"/><polygon class="cls-134" points="30 40.16 18.73 48.65 18.37 48.65 30 39.88 30 40.16"/><polygon class="cls-134" points="18.73 48.65 30 40.16 30 48.65 18.73 48.65"/></g><g class="cls-135"><polygon class="cls-50" points="36.23 14.73 36 14.9 36 14.73 36.23 14.73"/><polygon class="cls-51" points="36.59 14.73 36 15.17 36 14.9 36.23 14.73 36.59 14.73"/><polygon class="cls-52" points="36.96 14.73 36 15.44 36 15.17 36.59 14.73 36.96 14.73"/><polygon class="cls-53" points="37.32 14.73 36 15.71 36 15.44 36.96 14.73 37.32 14.73"/><polygon class="cls-54" points="37.68 14.73 36 15.98 36 15.71 37.32 14.73 37.68 14.73"/><polygon class="cls-55" points="38.04 14.73 36 16.25 36 15.98 37.68 14.73 38.04 14.73"/><polygon class="cls-56" points="38.4 14.73 36 16.52 36 16.25 38.04 14.73 38.4 14.73"/><polygon class="cls-57" points="38.76 14.73 36 16.79 36 16.52 38.4 14.73 38.76 14.73"/><polygon class="cls-58" points="39.13 14.73 36 17.06 36 16.79 38.76 14.73 39.13 14.73"/><polygon class="cls-59" points="39.49 14.73 36 17.33 36 17.06 39.13 14.73 39.49 14.73"/><polygon class="cls-60" points="39.85 14.73 36 17.6 36 17.33 39.49 14.73 39.85 14.73"/><polygon class="cls-61" points="40.21 14.73 36 17.87 36 17.6 39.85 14.73 40.21 14.73"/><polygon class="cls-62" points="40.57 14.73 36 18.14 36 17.87 40.21 14.73 40.57 14.73"/><polygon class="cls-63" points="40.93 14.73 36 18.41 36 18.14 40.57 14.73 40.93 14.73"/><polygon class="cls-64" points="41.29 14.73 36 18.68 36 18.41 40.93 14.73 41.29 14.73"/><polygon class="cls-65" points="41.65 14.73 36 18.95 36 18.68 41.29 14.73 41.65 14.73"/><polygon class="cls-66" points="42.02 14.73 36 19.22 36 18.95 41.65 14.73 42.02 14.73"/><polygon class="cls-67" points="42.38 14.73 36 19.49 36 19.22 42.02 14.73 42.38 14.73"/><polygon class="cls-68" points="42.74 14.73 36 19.76 36 19.49 42.38 14.73 42.74 14.73"/><polygon class="cls-69" points="43.1 14.73 36 20.03 36 19.76 42.74 14.73 43.1 14.73"/><polygon class="cls-70" points="43.46 14.73 36 20.3 36 20.03 43.1 14.73 43.46 14.73"/><polygon class="cls-71" points="43.82 14.73 36 20.57 36 20.3 43.46 14.73 43.82 14.73"/><polygon class="cls-72" points="44.18 14.73 36 20.84 36 20.57 43.82 14.73 44.18 14.73"/><polygon class="cls-73" points="44.55 14.73 36 21.11 36 20.84 44.18 14.73 44.55 14.73"/><polygon class="cls-74" points="44.91 14.73 36 21.38 36 21.11 44.55 14.73 44.91 14.73"/><polygon class="cls-75" points="45.27 14.73 36 21.65 36 21.38 44.91 14.73 45.27 14.73"/><polygon class="cls-76" points="45.63 14.73 36 21.92 36 21.65 45.27 14.73 45.63 14.73"/><polygon class="cls-77" points="45.99 14.73 36 22.19 36 21.92 45.63 14.73 45.99 14.73"/><polygon class="cls-78" points="46.35 14.73 36 22.46 36 22.19 45.99 14.73 46.35 14.73"/><polygon class="cls-79" points="46.71 14.73 36 22.73 36 22.46 46.35 14.73 46.71 14.73"/><polygon class="cls-80" points="47.07 14.73 36 23 36 22.73 46.71 14.73 47.07 14.73"/><polygon class="cls-81" points="47.44 14.73 36 23.27 36 23 47.07 14.73 47.44 14.73"/><polygon class="cls-82" points="47.8 14.73 36 23.54 36 23.27 47.44 14.73 47.8 14.73"/><polygon class="cls-83" points="48 14.85 36 23.81 36 23.54 47.8 14.73 48 14.73 48 14.85"/><polygon class="cls-84" points="48 15.12 36 24.08 36 23.81 48 14.85 48 15.12"/><polygon class="cls-85" points="48 15.38 36 24.35 36 24.08 48 15.12 48 15.38"/><polygon class="cls-86" points="48 15.65 36 24.62 36 24.35 48 15.38 48 15.65"/><polygon class="cls-87" points="48 15.93 36 24.89 36 24.62 48 15.65 48 15.93"/><polygon class="cls-88" points="48 16.19 36 25.16 36 24.89 48 15.93 48 16.19"/><polygon class="cls-89" points="48 16.46 36 25.43 36 25.16 48 16.19 48 16.46"/><polygon class="cls-90" points="48 16.73 36 25.7 36 25.43 48 16.46 48 16.73"/><polygon class="cls-91" points="48 17 36 25.97 36 25.7 48 16.73 48 17"/><polygon class="cls-92" points="48 17.27 36 26.23 36 25.97 48 17 48 17.27"/><polygon class="cls-93" points="48 17.54 36 26.5 36 26.23 48 17.27 48 17.54"/><polygon class="cls-94" points="48 17.81 36 26.77 36 26.5 48 17.54 48 17.81"/><polygon class="cls-95" points="48 18.08 36 27.05 36 26.77 48 17.81 48 18.08"/><polygon class="cls-96" points="48 18.35 36 27.32 36 27.05 48 18.08 48 18.35"/><polygon class="cls-97" points="48 18.62 36 27.59 36 27.32 48 18.35 48 18.62"/><polygon class="cls-98" points="48 18.89 36 27.85 36 27.59 48 18.62 48 18.89"/><polygon class="cls-99" points="48 19.16 36 28.12 36 27.85 48 18.89 48 19.16"/><polygon class="cls-100" points="48 19.43 36 28.39 36 28.12 48 19.16 48 19.43"/><polygon class="cls-101" points="48 19.7 36 28.66 36 28.39 48 19.43 48 19.7"/><polygon class="cls-102" points="48 19.97 36 28.93 36 28.66 48 19.7 48 19.97"/><polygon class="cls-103" points="48 20.24 36 29.2 36 28.93 48 19.97 48 20.24"/><polygon class="cls-104" points="48 20.51 36 29.47 36 29.2 48 20.24 48 20.51"/><polygon class="cls-105" points="48 20.78 36 29.74 36 29.47 48 20.51 48 20.78"/><polygon class="cls-106" points="48 21.05 36 30.01 36 29.74 48 20.78 48 21.05"/><polygon class="cls-107" points="48 21.32 36 30.28 36 30.01 48 21.05 48 21.32"/><polygon class="cls-108" points="48 21.59 36 30.55 36 30.28 48 21.32 48 21.59"/><polygon class="cls-109" points="48 21.86 36 30.82 36 30.55 48 21.59 48 21.86"/><polygon class="cls-110" points="48 22.13 36 31.09 36 30.82 48 21.86 48 22.13"/><polygon class="cls-111" points="48 22.4 36 31.36 36 31.09 48 22.13 48 22.4"/><polygon class="cls-112" points="48 22.67 36 31.63 36 31.36 48 22.4 48 22.67"/><polygon class="cls-113" points="48 22.94 36 31.9 36 31.63 48 22.67 48 22.94"/><polygon class="cls-114" points="48 23.21 36 32.17 36 31.9 48 22.94 48 23.21"/><polygon class="cls-115" points="48 23.48 36 32.44 36 32.17 48 23.21 48 23.48"/><polygon class="cls-116" points="48 23.75 36 32.71 36 32.44 48 23.48 48 23.75"/><polygon class="cls-117" points="48 24.02 36 32.98 36 32.71 48 23.75 48 24.02"/><polygon class="cls-118" points="48 24.29 36 33.25 36 32.98 48 24.02 48 24.29"/><polygon class="cls-119" points="48 24.56 36 33.52 36 33.25 48 24.29 48 24.56"/><polygon class="cls-120" points="48 24.83 36 33.79 36 33.52 48 24.56 48 24.83"/><polygon class="cls-122" points="48 25.1 36 34.06 36 33.79 48 24.83 48 25.1"/><polygon class="cls-123" points="48 25.37 36 34.33 36 34.06 48 25.1 48 25.37"/><polygon class="cls-124" points="48 25.64 36 34.6 36 34.33 48 25.37 48 25.64"/><polygon class="cls-125" points="48 25.91 36 34.87 36 34.6 48 25.64 48 25.91"/><polygon class="cls-126" points="48 26.18 36 35.14 36 34.87 48 25.91 48 26.18"/><polygon class="cls-127" points="48 26.45 36 35.41 36 35.14 48 26.18 48 26.45"/><polygon class="cls-128" points="48 26.72 36 35.68 36 35.41 48 26.45 48 26.72"/><polygon class="cls-129" points="48 26.99 36 35.95 36 35.68 48 26.72 48 26.99"/><polygon class="cls-130" points="48 27.26 36 36.22 36 35.95 48 26.99 48 27.26"/><polygon class="cls-131" points="48 27.53 36 36.49 36 36.22 48 27.26 48 27.53"/><polygon class="cls-132" points="48 27.8 36 36.76 36 36.49 48 27.53 48 27.8"/><polygon class="cls-133" points="48 28.07 36 37.03 36 36.76 48 27.8 48 28.07"/><polygon class="cls-134" points="48 28.34 36 37.3 36 37.03 48 28.07 48 28.34"/><polygon class="cls-134" points="36 37.3 48 28.34 48 48.73 36 48.73 36 37.3"/></g><g class="cls-136"><polygon class="cls-137" points="19.06 2.68 1.63 14.57 1.63 2.68 19.06 2.68"/><polygon class="cls-137" points="19.23 2.68 1.63 14.69 1.63 14.57 19.06 2.68 19.23 2.68"/><polygon class="cls-138" points="19.39 2.68 1.63 14.8 1.63 14.69 19.23 2.68 19.39 2.68"/><polygon class="cls-139" points="19.56 2.68 1.63 14.92 1.63 14.8 19.39 2.68 19.56 2.68"/><polygon class="cls-140" points="19.73 2.68 1.63 15.03 1.63 14.92 19.56 2.68 19.73 2.68"/><polygon class="cls-141" points="19.9 2.68 1.63 15.15 1.63 15.03 19.73 2.68 19.9 2.68"/><polygon class="cls-142" points="20.07 2.68 1.63 15.26 1.63 15.15 19.9 2.68 20.07 2.68"/><polygon class="cls-143" points="20.23 2.68 1.63 15.38 1.63 15.26 20.07 2.68 20.23 2.68"/><polygon class="cls-144" points="20.4 2.68 1.63 15.49 1.63 15.38 20.23 2.68 20.4 2.68"/><polygon class="cls-145" points="20.57 2.68 1.63 15.61 1.63 15.49 20.4 2.68 20.57 2.68"/><polygon class="cls-146" points="20.74 2.68 1.63 15.72 1.63 15.61 20.57 2.68 20.74 2.68"/><polygon class="cls-147" points="20.91 2.68 1.63 15.84 1.63 15.72 20.74 2.68 20.91 2.68"/><polygon class="cls-148" points="21.07 2.68 1.63 15.95 1.63 15.84 20.91 2.68 21.07 2.68"/><polygon class="cls-149" points="21.24 2.68 1.63 16.07 1.63 15.95 21.07 2.68 21.24 2.68"/><polygon class="cls-150" points="21.41 2.68 1.63 16.18 1.63 16.07 21.24 2.68 21.41 2.68"/><polygon class="cls-151" points="21.58 2.68 1.63 16.3 1.63 16.18 21.41 2.68 21.58 2.68"/><polygon class="cls-152" points="21.75 2.68 1.63 16.41 1.63 16.3 21.58 2.68 21.75 2.68"/><polygon class="cls-153" points="21.92 2.68 1.63 16.52 1.63 16.41 21.75 2.68 21.92 2.68"/><polygon class="cls-154" points="22.08 2.68 1.63 16.64 1.63 16.52 21.92 2.68 22.08 2.68"/><polygon class="cls-155" points="22.25 2.68 1.63 16.75 1.63 16.64 22.08 2.68 22.25 2.68"/><polygon class="cls-156" points="22.42 2.68 1.63 16.87 1.63 16.75 22.25 2.68 22.42 2.68"/><polygon class="cls-157" points="22.59 2.68 1.63 16.98 1.63 16.87 22.42 2.68 22.59 2.68"/><polygon class="cls-158" points="22.76 2.68 1.63 17.1 1.63 16.98 22.59 2.68 22.76 2.68"/><polygon class="cls-159" points="22.93 2.68 1.63 17.21 1.63 17.1 22.76 2.68 22.93 2.68"/><polygon class="cls-160" points="23.09 2.68 1.63 17.33 1.63 17.21 22.93 2.68 23.09 2.68"/><polygon class="cls-161" points="23.26 2.68 1.63 17.44 1.63 17.33 23.09 2.68 23.26 2.68"/><polygon class="cls-162" points="23.43 2.68 1.63 17.56 1.63 17.44 23.26 2.68 23.43 2.68"/><polygon class="cls-163" points="23.6 2.68 1.63 17.67 1.63 17.56 23.43 2.68 23.6 2.68"/><polygon class="cls-164" points="23.77 2.68 1.63 17.79 1.63 17.67 23.6 2.68 23.77 2.68"/><polygon class="cls-165" points="23.93 2.68 1.63 17.9 1.63 17.79 23.77 2.68 23.93 2.68"/><polygon class="cls-166" points="24.1 2.68 1.63 18.02 1.63 17.9 23.93 2.68 24.1 2.68"/><polygon class="cls-167" points="24.27 2.68 1.63 18.13 1.63 18.02 24.1 2.68 24.27 2.68"/><polygon class="cls-168" points="24.44 2.68 1.63 18.25 1.63 18.13 24.27 2.68 24.44 2.68"/><polygon class="cls-169" points="24.61 2.68 1.63 18.36 1.63 18.25 24.44 2.68 24.61 2.68"/><polygon class="cls-170" points="24.77 2.68 1.63 18.48 1.63 18.36 24.61 2.68 24.77 2.68"/><polygon class="cls-3" points="24.94 2.68 1.63 18.59 1.63 18.48 24.77 2.68 24.94 2.68"/><polygon class="cls-4" points="25.11 2.68 1.63 18.7 1.63 18.59 24.94 2.68 25.11 2.68"/><polygon class="cls-5" points="25.28 2.68 1.63 18.82 1.63 18.7 25.11 2.68 25.28 2.68"/><polygon class="cls-6" points="25.45 2.68 1.63 18.93 1.63 18.82 25.28 2.68 25.45 2.68"/><polygon class="cls-7" points="25.61 2.68 1.63 19.05 1.63 18.93 25.45 2.68 25.61 2.68"/><polygon class="cls-8" points="25.78 2.68 1.63 19.16 1.63 19.05 25.61 2.68 25.78 2.68"/><polygon class="cls-9" points="25.95 2.68 1.64 19.27 1.63 19.24 1.63 19.16 25.78 2.68 25.95 2.68"/><polygon class="cls-10" points="26.12 2.68 1.7 19.35 1.64 19.27 25.95 2.68 26.12 2.68"/><polygon class="cls-11" points="26.29 2.68 1.8 19.39 1.73 19.39 1.7 19.35 26.12 2.68 26.29 2.68"/><polygon class="cls-12" points="26.45 2.68 1.97 19.39 1.8 19.39 26.29 2.68 26.45 2.68"/><polygon class="cls-13" points="26.62 2.68 2.13 19.39 1.97 19.39 26.45 2.68 26.62 2.68"/><polygon class="cls-14" points="26.79 2.68 2.3 19.39 2.13 19.39 26.62 2.68 26.79 2.68"/><polygon class="cls-15" points="26.96 2.68 2.47 19.39 2.3 19.39 26.79 2.68 26.96 2.68"/><polygon class="cls-16" points="27.13 2.68 2.64 19.39 2.47 19.39 26.96 2.68 27.13 2.68"/><polygon class="cls-17" points="27.3 2.68 2.81 19.39 2.64 19.39 27.13 2.68 27.3 2.68"/><polygon class="cls-18" points="27.46 2.68 2.97 19.39 2.81 19.39 27.3 2.68 27.46 2.68"/><polygon class="cls-19" points="27.63 2.68 3.14 19.39 2.97 19.39 27.46 2.68 27.63 2.68"/><polygon class="cls-20" points="27.8 2.68 3.31 19.39 3.14 19.39 27.63 2.68 27.8 2.68"/><polygon class="cls-21" points="27.97 2.68 3.48 19.39 3.31 19.39 27.8 2.68 27.97 2.68"/><polygon class="cls-22" points="28.14 2.68 3.65 19.39 3.48 19.39 27.97 2.68 28.14 2.68"/><polygon class="cls-23" points="28.3 2.68 3.81 19.39 3.65 19.39 28.14 2.68 28.3 2.68"/><polygon class="cls-24" points="28.47 2.68 3.98 19.39 3.81 19.39 28.3 2.68 28.47 2.68"/><polygon class="cls-25" points="28.64 2.68 4.15 19.39 3.98 19.39 28.47 2.68 28.64 2.68"/><polygon class="cls-26" points="28.81 2.68 4.32 19.39 4.15 19.39 28.64 2.68 28.81 2.68"/><polygon class="cls-27" points="28.98 2.68 4.49 19.39 4.32 19.39 28.81 2.68 28.98 2.68"/><polygon class="cls-28" points="29.14 2.68 4.66 19.39 4.49 19.39 28.98 2.68 29.14 2.68"/><polygon class="cls-29" points="29.31 2.68 4.82 19.39 4.66 19.39 29.14 2.68 29.31 2.68"/><polygon class="cls-30" points="29.48 2.68 4.99 19.39 4.82 19.39 29.31 2.68 29.48 2.68"/><polygon class="cls-31" points="29.65 2.68 5.16 19.39 4.99 19.39 29.48 2.68 29.65 2.68"/><polygon class="cls-32" points="29.82 2.68 5.33 19.39 5.16 19.39 29.65 2.68 29.82 2.68"/><polygon class="cls-33" points="29.99 2.68 5.5 19.39 5.33 19.39 29.82 2.68 29.99 2.68"/><polygon class="cls-34" points="30.15 2.68 5.66 19.39 5.5 19.39 29.99 2.68 30.15 2.68"/><polygon class="cls-35" points="30.32 2.68 5.83 19.39 5.66 19.39 30.15 2.68 30.32 2.68"/><polygon class="cls-36" points="30.49 2.68 6 19.39 5.83 19.39 30.32 2.68 30.49 2.68"/><polygon class="cls-37" points="30.66 2.68 6.17 19.39 6 19.39 30.49 2.68 30.66 2.68"/><polygon class="cls-38" points="30.83 2.68 6.34 19.39 6.17 19.39 30.66 2.68 30.83 2.68"/><polygon class="cls-39" points="31 2.68 6.5 19.39 6.34 19.39 30.83 2.68 31 2.68"/><polygon class="cls-40" points="31.16 2.68 6.67 19.39 6.5 19.39 31 2.68 31.16 2.68"/><polygon class="cls-41" points="31.33 2.68 6.84 19.39 6.67 19.39 31.16 2.68 31.33 2.68"/><polygon class="cls-42" points="31.5 2.68 7.01 19.39 6.84 19.39 31.33 2.68 31.5 2.68"/><polygon class="cls-43" points="31.67 2.68 7.18 19.39 7.01 19.39 31.5 2.68 31.67 2.68"/><polygon class="cls-44" points="31.84 2.68 7.34 19.39 7.18 19.39 31.67 2.68 31.84 2.68"/><polygon class="cls-45" points="32 2.68 7.51 19.39 7.34 19.39 31.84 2.68 32 2.68"/><polygon class="cls-46" points="32.17 2.68 7.68 19.39 7.51 19.39 32 2.68 32.17 2.68"/><polygon class="cls-47" points="32.34 2.68 7.85 19.39 7.68 19.39 32.17 2.68 32.34 2.68"/><polygon class="cls-48" points="32.51 2.68 8.02 19.39 7.85 19.39 32.34 2.68 32.51 2.68"/><polygon class="cls-49" points="32.68 2.68 8.19 19.39 8.02 19.39 32.51 2.68 32.68 2.68"/><polygon class="cls-50" points="32.84 2.68 8.35 19.39 8.19 19.39 32.68 2.68 32.84 2.68"/><polygon class="cls-51" points="33.01 2.68 8.52 19.39 8.35 19.39 32.84 2.68 33.01 2.68"/><polygon class="cls-52" points="33.18 2.68 8.69 19.39 8.52 19.39 33.01 2.68 33.18 2.68"/><polygon class="cls-53" points="33.35 2.68 8.86 19.39 8.69 19.39 33.18 2.68 33.35 2.68"/><polygon class="cls-54" points="33.52 2.68 9.03 19.39 8.86 19.39 33.35 2.68 33.52 2.68"/><polygon class="cls-55" points="33.68 2.68 9.19 19.39 9.03 19.39 33.52 2.68 33.68 2.68"/><polygon class="cls-56" points="33.85 2.68 9.36 19.39 9.19 19.39 33.68 2.68 33.85 2.68"/><polygon class="cls-57" points="34.02 2.68 9.53 19.39 9.36 19.39 33.85 2.68 34.02 2.68"/><polygon class="cls-58" points="34.19 2.68 9.7 19.39 9.53 19.39 34.02 2.68 34.19 2.68"/><polygon class="cls-59" points="34.36 2.68 9.87 19.39 9.7 19.39 34.19 2.68 34.36 2.68"/><polygon class="cls-60" points="34.52 2.68 10.04 19.39 9.87 19.39 34.36 2.68 34.52 2.68"/><polygon class="cls-61" points="34.69 2.68 10.2 19.39 10.04 19.39 34.52 2.68 34.69 2.68"/><polygon class="cls-62" points="34.86 2.68 10.37 19.39 10.2 19.39 34.69 2.68 34.86 2.68"/><polygon class="cls-63" points="35.03 2.68 10.54 19.39 10.37 19.39 34.86 2.68 35.03 2.68"/><polygon class="cls-64" points="35.2 2.68 10.71 19.39 10.54 19.39 35.03 2.68 35.2 2.68"/><polygon class="cls-65" points="35.37 2.68 10.88 19.39 10.71 19.39 35.2 2.68 35.37 2.68"/><polygon class="cls-66" points="35.53 2.68 11.04 19.39 10.88 19.39 35.37 2.68 35.53 2.68"/><polygon class="cls-67" points="35.7 2.68 11.21 19.39 11.04 19.39 35.53 2.68 35.7 2.68"/><polygon class="cls-68" points="35.87 2.68 11.38 19.39 11.21 19.39 35.7 2.68 35.87 2.68"/><polygon class="cls-69" points="36.04 2.68 11.55 19.39 11.38 19.39 35.87 2.68 36.04 2.68"/><polygon class="cls-70" points="36.21 2.68 11.72 19.39 11.55 19.39 36.04 2.68 36.21 2.68"/><polygon class="cls-71" points="36.37 2.68 11.88 19.39 11.72 19.39 36.21 2.68 36.37 2.68"/><polygon class="cls-72" points="36.54 2.68 12.05 19.39 11.88 19.39 36.37 2.68 36.54 2.68"/><polygon class="cls-73" points="36.71 2.68 12.22 19.39 12.05 19.39 36.54 2.68 36.71 2.68"/><polygon class="cls-74" points="36.88 2.68 12.39 19.39 12.22 19.39 36.71 2.68 36.88 2.68"/><polygon class="cls-75" points="37.05 2.68 12.56 19.39 12.39 19.39 36.88 2.68 37.05 2.68"/><polygon class="cls-76" points="37.22 2.68 12.72 19.39 12.56 19.39 37.05 2.68 37.22 2.68"/><polygon class="cls-77" points="37.38 2.68 12.89 19.39 12.72 19.39 37.22 2.68 37.38 2.68"/><polygon class="cls-78" points="37.55 2.68 13.06 19.39 12.89 19.39 37.38 2.68 37.55 2.68"/><polygon class="cls-79" points="37.72 2.68 13.23 19.39 13.06 19.39 37.55 2.68 37.72 2.68"/><polygon class="cls-80" points="37.89 2.68 13.4 19.39 13.23 19.39 37.72 2.68 37.89 2.68"/><polygon class="cls-81" points="38.06 2.68 13.56 19.39 13.4 19.39 37.89 2.68 38.06 2.68"/><polygon class="cls-82" points="38.22 2.68 13.73 19.39 13.56 19.39 38.06 2.68 38.22 2.68"/><polygon class="cls-83" points="38.39 2.68 13.9 19.39 13.73 19.39 38.22 2.68 38.39 2.68"/><polygon class="cls-84" points="38.56 2.68 14.07 19.39 13.9 19.39 38.39 2.68 38.56 2.68"/><polygon class="cls-85" points="38.73 2.68 14.24 19.39 14.07 19.39 38.56 2.68 38.73 2.68"/><polygon class="cls-86" points="38.9 2.68 14.41 19.39 14.24 19.39 38.73 2.68 38.9 2.68"/><polygon class="cls-87" points="39.06 2.68 14.57 19.39 14.41 19.39 38.9 2.68 39.06 2.68"/><polygon class="cls-88" points="39.23 2.68 14.74 19.39 14.57 19.39 39.06 2.68 39.23 2.68"/><polygon class="cls-89" points="39.4 2.68 14.91 19.39 14.74 19.39 39.23 2.68 39.4 2.68"/><polygon class="cls-90" points="39.57 2.68 15.08 19.39 14.91 19.39 39.4 2.68 39.57 2.68"/><polygon class="cls-91" points="39.74 2.68 15.25 19.39 15.08 19.39 39.57 2.68 39.74 2.68"/><polygon class="cls-92" points="39.91 2.68 15.41 19.39 15.25 19.39 39.74 2.68 39.91 2.68"/><polygon class="cls-93" points="40.07 2.68 15.58 19.39 15.41 19.39 39.91 2.68 40.07 2.68"/><polygon class="cls-94" points="40.24 2.68 15.75 19.39 15.58 19.39 40.07 2.68 40.24 2.68"/><polygon class="cls-95" points="40.41 2.68 15.92 19.39 15.75 19.39 40.24 2.68 40.41 2.68"/><polygon class="cls-96" points="40.58 2.68 16.09 19.39 15.92 19.39 40.41 2.68 40.58 2.68"/><polygon class="cls-97" points="40.75 2.68 16.25 19.39 16.09 19.39 40.58 2.68 40.75 2.68"/><polygon class="cls-98" points="40.91 2.68 16.42 19.39 16.25 19.39 40.75 2.68 40.91 2.68"/><polygon class="cls-99" points="41.08 2.68 16.59 19.39 16.42 19.39 40.91 2.68 41.08 2.68"/><polygon class="cls-100" points="41.25 2.68 16.76 19.39 16.59 19.39 41.08 2.68 41.25 2.68"/><polygon class="cls-101" points="41.42 2.68 16.93 19.39 16.76 19.39 41.25 2.68 41.42 2.68"/><polygon class="cls-102" points="41.59 2.68 17.1 19.39 16.93 19.39 41.42 2.68 41.59 2.68"/><polygon class="cls-103" points="41.75 2.68 17.26 19.39 17.1 19.39 41.59 2.68 41.75 2.68"/><polygon class="cls-104" points="41.92 2.68 17.43 19.39 17.26 19.39 41.75 2.68 41.92 2.68"/><polygon class="cls-105" points="42.09 2.68 17.6 19.39 17.43 19.39 41.92 2.68 42.09 2.68"/><polygon class="cls-106" points="42.26 2.68 17.77 19.39 17.6 19.39 42.09 2.68 42.26 2.68"/><polygon class="cls-107" points="42.43 2.68 17.94 19.39 17.77 19.39 42.26 2.68 42.43 2.68"/><polygon class="cls-108" points="42.48 2.68 42.52 2.73 18.11 19.39 17.94 19.39 42.43 2.68 42.48 2.68"/><polygon class="cls-109" points="42.52 2.73 42.57 2.81 18.27 19.39 18.11 19.39 42.52 2.73"/><polygon class="cls-110" points="42.57 2.81 42.62 2.89 18.44 19.39 18.27 19.39 42.57 2.81"/><polygon class="cls-111" points="42.62 2.89 42.63 2.9 42.63 3 18.61 19.39 18.44 19.39 42.62 2.89"/><polygon class="cls-112" points="42.63 3.12 18.78 19.39 18.61 19.39 42.63 3 42.63 3.12"/><polygon class="cls-113" points="42.63 3.23 18.95 19.39 18.78 19.39 42.63 3.12 42.63 3.23"/><polygon class="cls-114" points="42.63 3.34 19.11 19.39 18.95 19.39 42.63 3.23 42.63 3.34"/><polygon class="cls-115" points="42.63 3.46 19.28 19.39 19.11 19.39 42.63 3.34 42.63 3.46"/><polygon class="cls-116" points="42.63 3.57 19.45 19.39 19.28 19.39 42.63 3.46 42.63 3.57"/><polygon class="cls-117" points="42.63 3.69 19.62 19.39 19.45 19.39 42.63 3.57 42.63 3.69"/><polygon class="cls-118" points="42.63 3.8 19.79 19.39 19.62 19.39 42.63 3.69 42.63 3.8"/><polygon class="cls-119" points="42.63 3.92 19.95 19.39 19.79 19.39 42.63 3.8 42.63 3.92"/><polygon class="cls-120" points="42.63 4.03 20.12 19.39 19.95 19.39 42.63 3.92 42.63 4.03"/><polygon class="cls-122" points="42.63 4.15 20.29 19.39 20.12 19.39 42.63 4.03 42.63 4.15"/><polygon class="cls-123" points="42.63 4.26 20.46 19.39 20.29 19.39 42.63 4.15 42.63 4.26"/><polygon class="cls-124" points="42.63 4.38 20.63 19.39 20.46 19.39 42.63 4.26 42.63 4.38"/><polygon class="cls-125" points="42.63 4.49 20.8 19.39 20.63 19.39 42.63 4.38 42.63 4.49"/><polygon class="cls-126" points="42.63 4.61 20.96 19.39 20.8 19.39 42.63 4.49 42.63 4.61"/><polygon class="cls-127" points="42.63 4.72 21.13 19.39 20.96 19.39 42.63 4.61 42.63 4.72"/><polygon class="cls-128" points="42.63 4.84 21.3 19.39 21.13 19.39 42.63 4.72 42.63 4.84"/><polygon class="cls-129" points="42.63 4.95 21.47 19.39 21.3 19.39 42.63 4.84 42.63 4.95"/><polygon class="cls-130" points="42.63 5.07 21.64 19.39 21.47 19.39 42.63 4.95 42.63 5.07"/><polygon class="cls-131" points="42.63 5.18 21.8 19.39 21.64 19.39 42.63 5.07 42.63 5.18"/><polygon class="cls-132" points="42.63 5.29 21.97 19.39 21.8 19.39 42.63 5.18 42.63 5.29"/><polygon class="cls-133" points="42.63 5.41 22.14 19.39 21.97 19.39 42.63 5.29 42.63 5.41"/><polygon class="cls-134" points="42.63 5.53 22.31 19.39 22.14 19.39 42.63 5.41 42.63 5.53"/><polygon class="cls-134" points="22.31 19.39 42.63 5.53 42.63 19.39 22.31 19.39"/></g><g class="cls-171"><polygon class="cls-57" points="37.94 0 37.92 0.02 37.92 0 37.94 0"/><polygon class="cls-58" points="38.11 0 37.92 0.13 37.92 0.02 37.94 0 38.11 0"/><polygon class="cls-59" points="38.28 0 37.92 0.25 37.92 0.13 38.11 0 38.28 0"/><polygon class="cls-60" points="38.45 0 37.92 0.36 37.92 0.25 38.28 0 38.45 0"/><polygon class="cls-61" points="38.62 0 37.92 0.48 37.92 0.36 38.45 0 38.62 0"/><polygon class="cls-62" points="38.78 0 37.92 0.59 37.92 0.48 38.62 0 38.78 0"/><polygon class="cls-63" points="38.95 0 37.92 0.71 37.92 0.59 38.78 0 38.95 0"/><polygon class="cls-64" points="39.12 0 37.92 0.82 37.92 0.71 38.95 0 39.12 0"/><polygon class="cls-65" points="39.29 0 37.92 0.94 37.92 0.82 39.12 0 39.29 0"/><polygon class="cls-66" points="39.46 0 37.92 1.05 37.92 0.94 39.29 0 39.46 0"/><polygon class="cls-67" points="39.62 0 37.92 1.17 37.92 1.05 39.46 0 39.62 0"/><polygon class="cls-68" points="39.79 0 37.92 1.28 37.92 1.17 39.62 0 39.79 0"/><polygon class="cls-69" points="39.96 0 37.92 1.4 37.92 1.28 39.79 0 39.96 0"/><polygon class="cls-70" points="40.13 0 37.92 1.51 37.92 1.4 39.96 0 40.13 0"/><polygon class="cls-71" points="40.3 0 37.92 1.62 37.92 1.51 40.13 0 40.3 0"/><polygon class="cls-72" points="40.47 0 37.92 1.74 37.92 1.62 40.3 0 40.47 0"/><polygon class="cls-73" points="40.63 0 37.92 1.85 37.92 1.74 40.47 0 40.63 0"/><polygon class="cls-74" points="40.8 0 37.92 1.97 37.92 1.85 40.63 0 40.8 0"/><polygon class="cls-75" points="40.97 0 37.92 2.08 37.92 1.97 40.8 0 40.97 0"/><polygon class="cls-76" points="41.14 0 37.92 2.2 37.92 2.08 40.97 0 41.14 0"/><polygon class="cls-77" points="41.3 0 37.92 2.31 37.92 2.2 41.14 0 41.3 0"/><polygon class="cls-78" points="41.47 0 37.92 2.43 37.92 2.31 41.3 0 41.47 0"/><polygon class="cls-79" points="41.64 0 37.92 2.54 37.92 2.43 41.47 0 41.64 0"/><polygon class="cls-80" points="41.81 0 37.92 2.66 37.92 2.54 41.64 0 41.81 0"/><polygon class="cls-81" points="41.98 0 37.92 2.77 37.92 2.66 41.81 0 41.98 0"/><polygon class="cls-82" points="42.15 0 37.92 2.89 37.92 2.77 41.98 0 42.15 0"/><polygon class="cls-83" points="42.31 0 37.92 3 37.92 2.89 42.15 0 42.31 0"/><polygon class="cls-84" points="42.48 0 37.92 3.12 37.92 3 42.31 0 42.48 0"/><polygon class="cls-85" points="42.65 0 37.92 3.23 37.92 3.12 42.48 0 42.65 0"/><polygon class="cls-86" points="42.82 0 37.92 3.35 37.92 3.23 42.65 0 42.82 0"/><polygon class="cls-87" points="42.99 0 37.92 3.46 37.92 3.35 42.82 0 42.99 0"/><polygon class="cls-88" points="43.16 0 37.92 3.58 37.92 3.46 42.99 0 43.16 0"/><polygon class="cls-89" points="43.32 0 37.95 3.67 37.92 3.63 37.92 3.58 43.16 0 43.32 0"/><polygon class="cls-90" points="43.49 0 38 3.75 37.95 3.67 43.32 0 43.49 0"/><polygon class="cls-91" points="43.66 0 38.05 3.83 38 3.75 43.49 0 43.66 0"/><polygon class="cls-92" points="43.83 0 38.11 3.9 38.05 3.83 43.66 0 43.83 0"/><polygon class="cls-93" points="43.99 0 38.16 3.98 38.11 3.9 43.83 0 43.99 0"/><polygon class="cls-94" points="44.16 0 38.21 4.06 38.16 3.98 43.99 0 44.16 0"/><polygon class="cls-95" points="44.33 0 38.27 4.14 38.21 4.06 44.16 0 44.33 0"/><polygon class="cls-96" points="44.5 0 38.32 4.22 38.27 4.14 44.33 0 44.5 0"/><polygon class="cls-97" points="44.67 0 38.37 4.3 38.32 4.22 44.5 0 44.67 0"/><polygon class="cls-98" points="44.84 0 38.43 4.38 38.37 4.3 44.67 0 44.84 0"/><polygon class="cls-99" points="45 0 38.48 4.45 38.43 4.38 44.84 0 45 0"/><polygon class="cls-100" points="45.17 0 38.53 4.53 38.48 4.45 45 0 45.17 0"/><polygon class="cls-101" points="45.34 0 38.59 4.61 38.53 4.53 45.17 0 45.34 0"/><polygon class="cls-102" points="45.51 0 38.64 4.69 38.59 4.61 45.34 0 45.51 0"/><polygon class="cls-103" points="45.68 0 38.69 4.77 38.64 4.69 45.51 0 45.68 0"/><polygon class="cls-104" points="45.84 0 38.75 4.84 38.69 4.77 45.68 0 45.84 0"/><polygon class="cls-105" points="46.01 0 38.8 4.92 38.75 4.84 45.84 0 46.01 0"/><polygon class="cls-106" points="46.18 0 38.85 5 38.8 4.92 46.01 0 46.18 0"/><polygon class="cls-107" points="46.35 0 38.91 5.08 38.85 5 46.18 0 46.35 0"/><polygon class="cls-108" points="46.37 0.1 38.96 5.16 38.91 5.08 46.35 0 46.37 0 46.37 0.1"/><polygon class="cls-109" points="46.37 0.21 39.01 5.24 38.96 5.16 46.37 0.1 46.37 0.21"/><polygon class="cls-110" points="46.37 0.33 39.07 5.31 39.01 5.24 46.37 0.21 46.37 0.33"/><polygon class="cls-111" points="46.37 0.44 39.12 5.39 39.07 5.31 46.37 0.33 46.37 0.44"/><polygon class="cls-112" points="46.37 0.56 39.17 5.47 39.12 5.39 46.37 0.44 46.37 0.56"/><polygon class="cls-113" points="46.37 0.67 39.23 5.55 39.17 5.47 46.37 0.56 46.37 0.67"/><polygon class="cls-114" points="46.37 0.79 39.28 5.63 39.23 5.55 46.37 0.67 46.37 0.79"/><polygon class="cls-115" points="46.37 0.9 39.34 5.71 39.28 5.63 46.37 0.79 46.37 0.9"/><polygon class="cls-116" points="46.37 1.02 39.39 5.78 39.34 5.71 46.37 0.9 46.37 1.02"/><polygon class="cls-117" points="46.37 1.13 39.44 5.86 39.39 5.78 46.37 1.02 46.37 1.13"/><polygon class="cls-118" points="46.37 1.25 39.49 5.94 39.44 5.86 46.37 1.13 46.37 1.25"/><polygon class="cls-119" points="46.37 1.36 39.55 6.02 39.49 5.94 46.37 1.25 46.37 1.36"/><polygon class="cls-120" points="46.37 1.48 39.6 6.1 39.55 6.02 46.37 1.36 46.37 1.48"/><polygon class="cls-122" points="46.37 1.59 39.66 6.17 39.6 6.1 46.37 1.48 46.37 1.59"/><polygon class="cls-123" points="46.37 1.71 39.71 6.25 39.66 6.17 46.37 1.59 46.37 1.71"/><polygon class="cls-124" points="46.37 1.82 39.76 6.33 39.71 6.25 46.37 1.71 46.37 1.82"/><polygon class="cls-125" points="46.37 1.94 39.82 6.41 39.76 6.33 46.37 1.82 46.37 1.94"/><polygon class="cls-126" points="46.37 2.05 39.87 6.49 39.82 6.41 46.37 1.94 46.37 2.05"/><polygon class="cls-127" points="46.37 2.16 39.92 6.57 39.87 6.49 46.37 2.05 46.37 2.16"/><polygon class="cls-128" points="46.37 2.28 39.98 6.64 39.92 6.57 46.37 2.16 46.37 2.28"/><polygon class="cls-129" points="46.37 2.39 40.03 6.72 39.98 6.64 46.37 2.28 46.37 2.39"/><polygon class="cls-130" points="46.37 2.51 40.08 6.8 40.03 6.72 46.37 2.39 46.37 2.51"/><polygon class="cls-131" points="46.37 2.62 40.14 6.88 40.08 6.8 46.37 2.51 46.37 2.62"/><polygon class="cls-132" points="46.37 2.74 40.19 6.96 40.14 6.88 46.37 2.62 46.37 2.74"/><polygon class="cls-133" points="46.37 2.85 40.24 7.04 40.19 6.96 46.37 2.74 46.37 2.85"/><polygon class="cls-134" points="46.37 2.97 40.3 7.12 40.24 7.04 46.37 2.85 46.37 2.97"/><polygon class="cls-134" points="40.68 7.68 40.3 7.12 46.37 2.97 46.37 7.68 40.68 7.68"/></g></g></g></svg>