<svg xmlns="http://www.w3.org/2000/svg" xmlns:xlink="http://www.w3.org/1999/xlink" viewBox="0 0 48.92 50"><defs><style>.cls-1{fill:none;}.cls-2{fill:url(#linear-gradient);}.cls-3{fill:url(#linear-gradient-2);}.cls-4{fill:url(#linear-gradient-3);}.cls-5{fill:url(#linear-gradient-4);}.cls-6{clip-path:url(#clip-path);}.cls-7{fill:#979151;}.cls-8{fill:#969151;}.cls-9{fill:#949152;}.cls-10{fill:#939153;}.cls-11{fill:#939253;}.cls-12{fill:#919253;}.cls-13{fill:#919255;}.cls-14{fill:#8f9255;}.cls-15{fill:#8e9356;}.cls-16{fill:#8d9356;}.cls-17{fill:#8d9357;}.cls-18{fill:#8b9358;}.cls-19{fill:#8b9359;}.cls-20{fill:#899459;}.cls-21{fill:#88945a;}.cls-22{fill:#86945a;}.cls-23{fill:#85945b;}.cls-24{fill:#84955b;}.cls-25{fill:#83945b;}.cls-26{fill:#83955d;}.cls-27{fill:#82955d;}.cls-28{fill:#81955e;}.cls-29{fill:#7f965f;}.cls-30{fill:#7e965f;}.cls-31{fill:#7d9660;}.cls-32{fill:#7c9660;}.cls-33{fill:#7c9661;}.cls-34{fill:#7b9761;}.cls-35{fill:#7a9862;}.cls-36{fill:#799764;}.cls-37{fill:#789763;}.cls-38{fill:#789865;}.cls-39{fill:#769865;}.cls-40{fill:#759966;}.cls-41{fill:#749866;}.cls-42{fill:#739866;}.cls-43{fill:#729867;}.cls-44{fill:#709967;}.cls-45{fill:#709968;}.cls-46{fill:#6e996a;}.cls-47{fill:#6d996a;}.cls-48{fill:#6c996b;}.cls-49{fill:#6b9a6b;}.cls-50{fill:#6a9a6b;}.cls-51{fill:#699a6c;}.cls-52{fill:#689a6d;}.cls-53{fill:#669b6d;}.cls-54{fill:#659b6e;}.cls-55{fill:#649b6e;}.cls-56{fill:#649b6f;}.cls-57{fill:#639c70;}.cls-58{fill:#619c70;}.cls-59{fill:#609c71;}.cls-60{fill:#5f9c71;}.cls-61{fill:#5e9c73;}.cls-62{fill:#5d9c73;}.cls-63{fill:#5d9d74;}.cls-64{fill:#5b9d75;}.cls-65{fill:#5a9d75;}.cls-66{fill:#589c75;}.cls-67{fill:#589d76;}.cls-68{fill:#579e76;}.cls-69{fill:#559e78;}.cls-70{fill:#549e77;}.cls-71{fill:#539e79;}.cls-72{fill:#529e79;}.cls-73{fill:#529f79;}.cls-74{fill:#509f79;}.cls-75{fill:#509f7a;}.cls-76{fill:#4e9f7b;}.cls-77{fill:#4da07c;}.cls-78{fill:#4da17c;}.cls-79{fill:#4ca07d;}</style><linearGradient id="linear-gradient" x1="-5.56" y1="21.28" x2="15.51" y2="52.14" gradientUnits="userSpaceOnUse"><stop offset="0" stop-color="#f08020"/><stop offset="1" stop-color="#4ca07d"/></linearGradient><linearGradient id="linear-gradient-2" x1="8.01" y1="12.01" x2="29.07" y2="42.86" xlink:href="#linear-gradient"/><linearGradient id="linear-gradient-3" x1="21.4" y1="2.87" x2="42.45" y2="33.71" xlink:href="#linear-gradient"/><linearGradient id="linear-gradient-4" x1="16.49" y1="3.99" x2="25.47" y2="17.15" xlink:href="#linear-gradient"/><clipPath id="clip-path"><polygon class="cls-1" points="41.86 7.82 40.87 4.18 37.56 2.37 46.18 0 41.86 7.82"/></clipPath></defs><g id="Layer_2" data-name="Layer 2"><g id="Layer_1-2" data-name="Layer 1"><path class="cls-2" d="M2,27h9.33a2,2,0,0,1,2,2V50a0,0,0,0,1,0,0H0a0,0,0,0,1,0,0V29A2,2,0,0,1,2,27Z"/><path class="cls-3" d="M19.79,20.83h9.33a2,2,0,0,1,2,2V50a0,0,0,0,1,0,0H17.79a0,0,0,0,1,0,0V22.83A2,2,0,0,1,19.79,20.83Z"/><path class="cls-4" d="M37.59,15.47h9.33a2,2,0,0,1,2,2V50a0,0,0,0,1,0,0H35.59a0,0,0,0,1,0,0V17.47A2,2,0,0,1,37.59,15.47Z"/><polygon class="cls-5" points="1.82 19.76 0.57 18.36 17.78 3.11 28.84 12.46 41.2 2.73 42.36 4.2 28.8 14.88 17.81 5.59 1.82 19.76"/><g class="cls-6"><polygon class="cls-7" points="37.59 0 37.56 0.02 37.56 0 37.59 0"/><polygon class="cls-8" points="37.76 0 37.56 0.14 37.56 0.02 37.59 0 37.76 0"/><polygon class="cls-9" points="37.93 0 37.56 0.25 37.56 0.14 37.76 0 37.93 0"/><polygon class="cls-9" points="38.1 0 37.56 0.37 37.56 0.25 37.93 0 38.1 0"/><polygon class="cls-10" points="38.27 0 37.56 0.49 37.56 0.37 38.1 0 38.27 0"/><polygon class="cls-11" points="38.44 0 37.56 0.6 37.56 0.49 38.27 0 38.44 0"/><polygon class="cls-12" points="38.61 0 37.56 0.72 37.56 0.6 38.44 0 38.61 0"/><polygon class="cls-13" points="38.78 0 37.56 0.84 37.56 0.72 38.61 0 38.78 0"/><polygon class="cls-14" points="38.96 0 37.56 0.95 37.56 0.84 38.78 0 38.96 0"/><polygon class="cls-15" points="39.13 0 37.56 1.07 37.56 0.95 38.96 0 39.13 0"/><polygon class="cls-16" points="39.3 0 37.56 1.19 37.56 1.07 39.13 0 39.3 0"/><polygon class="cls-17" points="39.47 0 37.56 1.3 37.56 1.19 39.3 0 39.47 0"/><polygon class="cls-18" points="39.64 0 37.56 1.42 37.56 1.3 39.47 0 39.64 0"/><polygon class="cls-19" points="39.81 0 37.56 1.54 37.56 1.42 39.64 0 39.81 0"/><polygon class="cls-20" points="39.98 0 37.56 1.66 37.56 1.54 39.81 0 39.98 0"/><polygon class="cls-20" points="40.16 0 37.56 1.77 37.56 1.66 39.98 0 40.16 0"/><polygon class="cls-21" points="40.33 0 37.56 1.89 37.56 1.77 40.16 0 40.33 0"/><polygon class="cls-22" points="40.5 0 37.56 2.01 37.56 1.89 40.33 0 40.5 0"/><polygon class="cls-23" points="40.67 0 37.56 2.12 37.56 2.01 40.5 0 40.67 0"/><polygon class="cls-24" points="40.84 0 37.56 2.24 37.56 2.12 40.67 0 40.84 0"/><polygon class="cls-25" points="41.01 0 37.56 2.36 37.56 2.24 40.84 0 41.01 0"/><polygon class="cls-26" points="41.18 0 37.56 2.47 37.56 2.36 41.01 0 41.18 0"/><polygon class="cls-27" points="41.35 0 37.56 2.59 37.56 2.47 41.18 0 41.35 0"/><polygon class="cls-28" points="41.53 0 37.56 2.71 37.56 2.59 41.35 0 41.53 0"/><polygon class="cls-29" points="41.7 0 37.56 2.83 37.56 2.71 41.53 0 41.7 0"/><polygon class="cls-30" points="41.87 0 37.56 2.94 37.56 2.83 41.7 0 41.87 0"/><polygon class="cls-31" points="42.04 0 37.56 3.06 37.56 2.94 41.87 0 42.04 0"/><polygon class="cls-32" points="42.21 0 37.56 3.17 37.56 3.06 42.04 0 42.21 0"/><polygon class="cls-33" points="42.38 0 37.56 3.29 37.56 3.17 42.21 0 42.38 0"/><polygon class="cls-34" points="42.55 0 37.56 3.41 37.56 3.29 42.38 0 42.55 0"/><polygon class="cls-35" points="42.73 0 37.56 3.53 37.56 3.41 42.55 0 42.73 0"/><polygon class="cls-36" points="42.9 0 37.56 3.64 37.56 3.53 42.73 0 42.9 0"/><polygon class="cls-37" points="43.07 0 37.59 3.74 37.56 3.7 37.56 3.64 42.9 0 43.07 0"/><polygon class="cls-38" points="43.24 0 37.64 3.82 37.59 3.74 43.07 0 43.24 0"/><polygon class="cls-39" points="43.41 0 37.7 3.9 37.64 3.82 43.24 0 43.41 0"/><polygon class="cls-40" points="43.58 0 37.75 3.98 37.7 3.9 43.41 0 43.58 0"/><polygon class="cls-41" points="43.75 0 37.81 4.06 37.75 3.98 43.58 0 43.75 0"/><polygon class="cls-42" points="43.92 0 37.86 4.14 37.81 4.06 43.75 0 43.92 0"/><polygon class="cls-43" points="44.1 0 37.91 4.22 37.86 4.14 43.92 0 44.1 0"/><polygon class="cls-44" points="44.27 0 37.97 4.3 37.91 4.22 44.1 0 44.27 0"/><polygon class="cls-45" points="44.44 0 38.02 4.38 37.97 4.3 44.27 0 44.44 0"/><polygon class="cls-46" points="44.61 0 38.08 4.46 38.02 4.38 44.44 0 44.61 0"/><polygon class="cls-47" points="44.78 0 38.13 4.54 38.08 4.46 44.61 0 44.78 0"/><polygon class="cls-48" points="44.95 0 38.19 4.62 38.13 4.54 44.78 0 44.95 0"/><polygon class="cls-49" points="45.13 0 38.24 4.7 38.19 4.62 44.95 0 45.13 0"/><polygon class="cls-50" points="45.3 0 38.3 4.78 38.24 4.7 45.13 0 45.3 0"/><polygon class="cls-50" points="45.47 0 38.35 4.86 38.3 4.78 45.3 0 45.47 0"/><polygon class="cls-51" points="45.64 0 38.41 4.94 38.35 4.86 45.47 0 45.64 0"/><polygon class="cls-52" points="45.81 0 38.46 5.02 38.41 4.94 45.64 0 45.81 0"/><polygon class="cls-53" points="45.98 0 38.51 5.1 38.46 5.02 45.81 0 45.98 0"/><polygon class="cls-54" points="46.15 0 38.57 5.18 38.51 5.1 45.98 0 46.15 0"/><polygon class="cls-55" points="46.18 0.1 38.62 5.26 38.57 5.18 46.15 0 46.18 0 46.18 0.1"/><polygon class="cls-56" points="46.18 0.22 38.68 5.34 38.62 5.26 46.18 0.1 46.18 0.22"/><polygon class="cls-57" points="46.18 0.34 38.73 5.42 38.68 5.34 46.18 0.22 46.18 0.34"/><polygon class="cls-58" points="46.18 0.45 38.79 5.5 38.73 5.42 46.18 0.34 46.18 0.45"/><polygon class="cls-59" points="46.18 0.57 38.84 5.58 38.79 5.5 46.18 0.45 46.18 0.57"/><polygon class="cls-60" points="46.18 0.69 38.9 5.66 38.84 5.58 46.18 0.57 46.18 0.69"/><polygon class="cls-61" points="46.18 0.8 38.95 5.74 38.9 5.66 46.18 0.69 46.18 0.8"/><polygon class="cls-62" points="46.18 0.92 39 5.82 38.95 5.74 46.18 0.8 46.18 0.92"/><polygon class="cls-63" points="46.18 1.04 39.06 5.89 39 5.82 46.18 0.92 46.18 1.04"/><polygon class="cls-64" points="46.18 1.15 39.11 5.97 39.06 5.89 46.18 1.04 46.18 1.15"/><polygon class="cls-65" points="46.18 1.27 39.17 6.05 39.11 5.97 46.18 1.15 46.18 1.27"/><polygon class="cls-66" points="46.18 1.39 39.22 6.13 39.17 6.05 46.18 1.27 46.18 1.39"/><polygon class="cls-67" points="46.18 1.5 39.28 6.21 39.22 6.13 46.18 1.39 46.18 1.5"/><polygon class="cls-68" points="46.18 1.62 39.33 6.29 39.28 6.21 46.18 1.5 46.18 1.62"/><polygon class="cls-69" points="46.18 1.74 39.38 6.37 39.33 6.29 46.18 1.62 46.18 1.74"/><polygon class="cls-70" points="46.18 1.85 39.44 6.45 39.38 6.37 46.18 1.74 46.18 1.85"/><polygon class="cls-71" points="46.18 1.97 39.49 6.53 39.44 6.45 46.18 1.85 46.18 1.97"/><polygon class="cls-72" points="46.18 2.09 39.55 6.61 39.49 6.53 46.18 1.97 46.18 2.09"/><polygon class="cls-73" points="46.18 2.21 39.6 6.69 39.55 6.61 46.18 2.09 46.18 2.21"/><polygon class="cls-74" points="46.18 2.32 39.66 6.77 39.6 6.69 46.18 2.21 46.18 2.32"/><polygon class="cls-75" points="46.18 2.44 39.71 6.85 39.66 6.77 46.18 2.32 46.18 2.44"/><polygon class="cls-76" points="46.18 2.56 39.77 6.93 39.71 6.85 46.18 2.44 46.18 2.56"/><polygon class="cls-76" points="46.18 2.67 39.82 7.01 39.77 6.93 46.18 2.56 46.18 2.67"/><polygon class="cls-77" points="46.18 2.79 39.88 7.09 39.82 7.01 46.18 2.67 46.18 2.79"/><polygon class="cls-78" points="46.18 2.91 39.93 7.17 39.88 7.09 46.18 2.79 46.18 2.91"/><polygon class="cls-79" points="46.18 3.02 39.98 7.25 39.93 7.17 46.18 2.91 46.18 3.02"/><polygon class="cls-79" points="40.38 7.82 39.98 7.25 46.18 3.02 46.18 7.82 40.38 7.82"/></g></g></g></svg>