<svg xmlns="http://www.w3.org/2000/svg" viewBox="0 0 50.59 49.87"><defs><style>.cls-1{fill:#f07f1d;}</style></defs><g id="Layer_2" data-name="Layer 2"><g id="Layer_1-2" data-name="Layer 1"><path class="cls-1" d="M47.13,24.62A15.33,15.33,0,0,0,37,19h8.32V0h-19V19h6.86a15.4,15.4,0,0,0-7.84,3.32A15.89,15.89,0,0,0,23.61,24L13.31,3.38,0,30H20.22a15.76,15.76,0,0,0-.55,2.75,15.5,15.5,0,0,0,13.8,17,15.2,15.2,0,0,0,1.65.09,15.5,15.5,0,0,0,12-25.25ZM27.31,1h17V18h-17ZM1.62,29,13.31,5.62,22.9,24.81A15.27,15.27,0,0,0,20.56,29ZM23.4,25.8,25,29H21.62A14.53,14.53,0,0,1,23.4,25.8ZM49.51,35.89a14.5,14.5,0,0,1-28.84-3A14.28,14.28,0,0,1,21.26,30h5.36l-2.54-5.07A15.51,15.51,0,0,1,26,23.1a14.4,14.4,0,0,1,9.1-3.23c.51,0,1,0,1.54.08A14.52,14.52,0,0,1,49.51,35.89Z"/></g></g></svg>