<svg xmlns="http://www.w3.org/2000/svg" viewBox="0 0 51 51"><defs><style>.cls-1{fill:#f07f1d;}</style></defs><g id="Layer_2" data-name="Layer 2"><g id="Layer_1-2" data-name="Layer 1"><path class="cls-1" d="M23.59,19.92a3.36,3.36,0,0,0-1.11-1,3.45,3.45,0,0,0-1.64-.36,3.5,3.5,0,0,0-1,.15,2.89,2.89,0,0,0-.93.46A2.31,2.31,0,0,0,18,21.09a2,2,0,0,0,.25,1.05,2.28,2.28,0,0,0,.64.71,4.21,4.21,0,0,0,.92.48l1.08.37c.47.15.93.32,1.4.49a5.35,5.35,0,0,1,1.27.69A3.42,3.42,0,0,1,24.48,26a3.51,3.51,0,0,1,.35,1.65,3.58,3.58,0,0,1-.38,1.72,3.72,3.72,0,0,1-1,1.2,4.21,4.21,0,0,1-1.39.69,5.68,5.68,0,0,1-1.57.23,6.13,6.13,0,0,1-1.21-.12A6.43,6.43,0,0,1,18.15,31a4.57,4.57,0,0,1-1-.62,4.28,4.28,0,0,1-.83-.87l1.17-.86a3.54,3.54,0,0,0,1.21,1.19,3.42,3.42,0,0,0,1.83.48,3.46,3.46,0,0,0,1-.16,3,3,0,0,0,1-.49,2.89,2.89,0,0,0,.7-.81,2.52,2.52,0,0,0,0-2.27,2.59,2.59,0,0,0-.73-.78,4.3,4.3,0,0,0-1-.51l-1.23-.42c-.44-.14-.87-.29-1.3-.47a4.36,4.36,0,0,1-1.14-.68A3.28,3.28,0,0,1,17,22.63a3.32,3.32,0,0,1-.31-1.52A3.48,3.48,0,0,1,17,19.45a3.62,3.62,0,0,1,1-1.15,4.24,4.24,0,0,1,1.37-.66,6,6,0,0,1,1.49-.2,5.16,5.16,0,0,1,2.32.48,3.88,3.88,0,0,1,1.44,1.14Z"/><path class="cls-1" d="M35.69,26.43v.28c0,.1,0,.21,0,.32h-7.3a3.49,3.49,0,0,0,.26,1.25,3.21,3.21,0,0,0,.68,1,3.28,3.28,0,0,0,1,.69,3.38,3.38,0,0,0,3-.21,3.5,3.5,0,0,0,1.1-1.06l1,.75A4.85,4.85,0,0,1,29.77,31a4.4,4.4,0,0,1-1.44-1,4.71,4.71,0,0,1-.95-1.47A4.82,4.82,0,0,1,27,26.7a5.07,5.07,0,0,1,.34-1.85,4.33,4.33,0,0,1,2.36-2.44,4.37,4.37,0,0,1,1.75-.34,4.51,4.51,0,0,1,1.82.34,3.79,3.79,0,0,1,1.32.95,3.94,3.94,0,0,1,.8,1.38A5.21,5.21,0,0,1,35.69,26.43ZM34.39,26a3.15,3.15,0,0,0-.8-2.06,2.68,2.68,0,0,0-2.11-.82,3.08,3.08,0,0,0-1.19.23,3.29,3.29,0,0,0-1,.64,3,3,0,0,0-.66.93A2.88,2.88,0,0,0,28.39,26Z"/><path class="cls-1" d="M51,25.5a25.24,25.24,0,0,0-5.19-15.4c0-.15,0-.29,0-.45a4.5,4.5,0,0,0-4.5-4.5,3.29,3.29,0,0,0-.44,0,25.43,25.43,0,0,0-30.82,0,3.29,3.29,0,0,0-.44,0,4.5,4.5,0,0,0-4.5,4.5c0,.16,0,.3,0,.45a25.44,25.44,0,0,0,0,30.8c0,.15,0,.29,0,.45a4.5,4.5,0,0,0,4.5,4.5,3.29,3.29,0,0,0,.44-.05,25.43,25.43,0,0,0,30.82,0,3.29,3.29,0,0,0,.44.05,4.5,4.5,0,0,0,4.5-4.5c0-.16,0-.3,0-.45A25.26,25.26,0,0,0,51,25.5ZM45.4,39.41c-.07-.14-.14-.27-.22-.4a2.2,2.2,0,0,0-.18-.28,4.94,4.94,0,0,0-.36-.44L44.36,38l-.24-.19a4.45,4.45,0,0,0-.55-.38l-.22-.12a5.33,5.33,0,0,0-.87-.32h0A20.32,20.32,0,0,0,46,26.05h4a24.22,24.22,0,0,1-4.47,13.58A1.51,1.51,0,0,0,45.4,39.41Zm-8.54,1.9a19.33,19.33,0,0,1-22.72,0,4.5,4.5,0,0,0-4.46-4.46,19.34,19.34,0,0,1,0-22.7,4.5,4.5,0,0,0,4.46-4.46,19.33,19.33,0,0,1,22.72,0,4.5,4.5,0,0,0,4.46,4.46,19.34,19.34,0,0,1,0,22.7A4.5,4.5,0,0,0,36.86,41.31ZM50,25.05H46a20.26,20.26,0,0,0-3.53-11h0a5.33,5.33,0,0,0,.87-.32l.22-.12a4.24,4.24,0,0,0,.56-.38l.23-.19.28-.27a4.94,4.94,0,0,0,.36-.44,2.9,2.9,0,0,0,.19-.29l.21-.39a1.51,1.51,0,0,0,.11-.22A24.28,24.28,0,0,1,50,25.05ZM44.85,9.65a3.45,3.45,0,0,1-.05.57c0,.14-.06.28-.1.41a1.72,1.72,0,0,1-.07.21,2.54,2.54,0,0,1-.16.38,1.62,1.62,0,0,1-.1.18,3.75,3.75,0,0,1-.24.36l-.09.11a2.82,2.82,0,0,1-.33.36l0,0a3.46,3.46,0,0,1-2.13.88l-.27,0a3.49,3.49,0,0,1-3.41-3.37V9.47a3.5,3.5,0,0,1,3-3.26h0a3.44,3.44,0,0,1,.45,0A3.5,3.5,0,0,1,44.85,9.65ZM39.18,5.74h0A4.43,4.43,0,0,0,37,8.56,20.22,20.22,0,0,0,26,5V1A24.21,24.21,0,0,1,39.64,5.5,2.88,2.88,0,0,0,39.18,5.74ZM25,1V5A20.26,20.26,0,0,0,14,8.55,4.51,4.51,0,0,0,13.83,8c0-.11-.1-.22-.15-.33a3.24,3.24,0,0,0-.17-.32,4,4,0,0,0-.33-.47L13,6.65a3.83,3.83,0,0,0-.28-.29l-.31-.26a4.53,4.53,0,0,0-.46-.3l-.24-.14c-.11,0-.21-.12-.32-.16A24.21,24.21,0,0,1,25,1ZM9.65,6.15a4.07,4.07,0,0,1,.49,0h0a2.59,2.59,0,0,1,.55.13l.06,0a2.33,2.33,0,0,1,.49.21l.08,0a4,4,0,0,1,.43.28l.06.06a2.57,2.57,0,0,1,.39.35l0,0A3.59,3.59,0,0,1,13,8.84v0a3.11,3.11,0,0,1,.07.44,3.16,3.16,0,0,1,0,.32v0a3.5,3.5,0,0,1-3.42,3.49l-.26,0a3.48,3.48,0,0,1-3.25-3l0-.24c0-.09,0-.18,0-.27A3.5,3.5,0,0,1,9.65,6.15ZM8.55,14A20.26,20.26,0,0,0,5,25.05H1A24.28,24.28,0,0,1,5.49,11.37,4.5,4.5,0,0,0,8.55,14ZM1,26.05H5A20.32,20.32,0,0,0,8.55,37a4.52,4.52,0,0,0-3.06,2.63A24.22,24.22,0,0,1,1,26.05Zm5.13,15.3c0-.09,0-.18,0-.27l0-.24a3.48,3.48,0,0,1,3.25-3l.26,0a3.5,3.5,0,0,1,3.42,3.49v0a3.16,3.16,0,0,1,0,.32,3.11,3.11,0,0,1-.07.44v0a3.45,3.45,0,0,1-.81,1.52v0a3.33,3.33,0,0,1-.39.36l-.06,0a4,4,0,0,1-.43.28l-.08,0a3,3,0,0,1-.49.21l0,0a3.5,3.5,0,0,1-.56.13h0a3.91,3.91,0,0,1-.48.05A3.5,3.5,0,0,1,6.15,41.35Zm5.54,4,.23-.12a5.62,5.62,0,0,0,.5-.35l.27-.22a3.83,3.83,0,0,0,.28-.29l.21-.25a4.07,4.07,0,0,0,.33-.48c.06-.11.12-.21.17-.32s.11-.22.15-.33a4.51,4.51,0,0,0,.17-.52A20.26,20.26,0,0,0,25,46v4A24.21,24.21,0,0,1,11.36,45.5,2.59,2.59,0,0,0,11.69,45.33ZM26,50V46a20.22,20.22,0,0,0,11-3.54,4.5,4.5,0,0,0,2.63,3.06A24.24,24.24,0,0,1,26,50Zm15.35-5.13a3.29,3.29,0,0,1-.44-.05h-.06a3.5,3.5,0,0,1-3-3.26v-.31a3.49,3.49,0,0,1,3.41-3.37l.27,0a3.46,3.46,0,0,1,2.13.88l0,0a2.82,2.82,0,0,1,.33.36l.09.11a3.75,3.75,0,0,1,.24.36,1.62,1.62,0,0,1,.1.18,2.54,2.54,0,0,1,.16.38,1.72,1.72,0,0,1,.07.21c0,.13.07.27.1.41a3.45,3.45,0,0,1,.05.57A3.5,3.5,0,0,1,41.35,44.85Z"/></g></g></svg>