<svg xmlns="http://www.w3.org/2000/svg" viewBox="0 0 51.07 50.03"><defs><style>.cls-1{fill:#f07f1d;}</style></defs><g id="Layer_2" data-name="Layer 2"><g id="Layer_1-2" data-name="Layer 1"><path class="cls-1" d="M48.53,15.07a2.54,2.54,0,0,0,2.54-2.54v-10A2.54,2.54,0,0,0,48.53,0h-14A2.54,2.54,0,0,0,32,2.53V7.05H19.07V2.53A2.54,2.54,0,0,0,16.53,0h-14A2.54,2.54,0,0,0,0,2.53v10a2.54,2.54,0,0,0,2.53,2.54h14a2.54,2.54,0,0,0,2.54-2.54V8H32v4.51a2.54,2.54,0,0,0,2.53,2.54H41V20h-6.5A2.54,2.54,0,0,0,32,22.53v4.52H19.07V22.53A2.54,2.54,0,0,0,16.53,20h-14A2.54,2.54,0,0,0,0,22.53v10a2.54,2.54,0,0,0,2.53,2.54H9v6.46s0,2.5,3.5,2.5h6.53a6.5,6.5,0,1,0,0-1H12.53c-2.39,0-2.49-1.35-2.5-1.5V35.07h6.5a2.54,2.54,0,0,0,2.54-2.54V28H32v4.51a2.54,2.54,0,0,0,2.53,2.54h14a2.54,2.54,0,0,0,2.54-2.54v-10A2.54,2.54,0,0,0,48.53,20H42V15.07Zm-46-14h14A1.47,1.47,0,0,1,18,2.53V4H1.07V2.53A1.47,1.47,0,0,1,2.53,1.07ZM16.53,14h-14a1.47,1.47,0,0,1-1.46-1.47V5H18v7.5A1.47,1.47,0,0,1,16.53,14Zm9,24a5.5,5.5,0,1,1-5.5,5.5A5.5,5.5,0,0,1,25.53,38Zm-23-17h14A1.47,1.47,0,0,1,18,22.53V24H1.07v-1.5A1.47,1.47,0,0,1,2.53,21.07ZM16.53,34h-14a1.47,1.47,0,0,1-1.46-1.47V25H18v7.5A1.47,1.47,0,0,1,16.53,34Zm32,0h-14a1.47,1.47,0,0,1-1.46-1.47V25H50v7.5A1.47,1.47,0,0,1,48.53,34ZM50,22.53V24H33.07v-1.5a1.47,1.47,0,0,1,1.46-1.46h14A1.47,1.47,0,0,1,50,22.53ZM34.53,1.07h14A1.47,1.47,0,0,1,50,2.53V4H33.07V2.53A1.47,1.47,0,0,1,34.53,1.07ZM33.07,12.53V5H50v7.5A1.47,1.47,0,0,1,48.53,14h-14A1.47,1.47,0,0,1,33.07,12.53Z"/><polygon class="cls-1" points="29.64 41.64 28.93 40.93 24.78 45.08 22.14 42.43 21.43 43.14 24.78 46.49 29.64 41.64"/></g></g></svg>